<mxfile host="app.diagrams.net" agent="Mozilla/5.0 (Macintosh; Intel Mac OS X 10_15_7) AppleWebKit/537.36 (KHTML, like Gecko) Chrome/138.0.0.0 Safari/537.36" version="28.0.4">
  <diagram id="Or2q-ftSOpMCDZFymofQ" name="Page-1">
    <mxGraphModel dx="1028" dy="588" grid="1" gridSize="10" guides="1" tooltips="1" connect="1" arrows="1" fold="1" page="1" pageScale="1" pageWidth="827" pageHeight="1169" math="0" shadow="0">
      <root>
        <mxCell id="0" />
        <mxCell id="1" value="Background" style="" parent="0" />
        <mxCell id="D3t2vFxjSbuaH77wl_CM-7" value="&lt;b style=&quot;color: rgb(63, 58, 54); font-family: Helvetica; text-align: left; text-wrap-mode: nowrap; font-size: 14px;&quot;&gt;Oracle Cloud Infrastructure (Region)&lt;/b&gt;" style="rounded=1;whiteSpace=wrap;html=1;labelBackgroundColor=none;gradientColor=none;fontFamily=Oracle Sans;fontSize=11;align=center;arcSize=5;verticalAlign=top;spacingRight=5;fontColor=#312D2A;fillColor=#F5F4F2;strokeColor=#9E9892;" parent="1" vertex="1">
          <mxGeometry x="400" y="120" width="390" height="400" as="geometry" />
        </mxCell>
        <mxCell id="Mvm1oyz63STRThyXKM0V-16" value="" style="group" parent="1" vertex="1" connectable="0">
          <mxGeometry x="140" y="240" width="610" height="500" as="geometry" />
        </mxCell>
        <mxCell id="D3t2vFxjSbuaH77wl_CM-36" value="&lt;div style=&quot;line-height: 90%;&quot;&gt;&lt;p style=&quot;margin: 0px; text-indent: 0px; direction: ltr;&quot;&gt;&lt;font style=&quot;color: rgb(0, 0, 0); direction: ltr; letter-spacing: 0px; opacity: 1;&quot;&gt;&lt;font style=&quot;line-height: 90%; font-size: 11px;&quot; face=&quot;Helvetica&quot;&gt;Service&amp;nbsp;&lt;/font&gt;&lt;/font&gt;&lt;/p&gt;&lt;p style=&quot;margin: 0px; text-indent: 0px; direction: ltr;&quot;&gt;&lt;font style=&quot;color: rgb(0, 0, 0); direction: ltr; letter-spacing: 0px; opacity: 1;&quot;&gt;&lt;font style=&quot;line-height: 90%; font-size: 11px;&quot; face=&quot;Helvetica&quot;&gt;Gateway&lt;/font&gt;&lt;br&gt;&lt;/font&gt;&lt;/p&gt;&lt;/div&gt;" style="verticalAlign=middle;align=center;vsdxID=40;fillColor=none;gradientColor=none;shape=stencil(nZBLDoAgDERP0z3SIyjew0SURgSD+Lu9kMZoXLhwN9O+tukAlrNpJg1SzDH4QW/URgNYgZTkjA4UkwJUgGXng+6DX1zLfmoymdXo17xh5zmRJ6Q42BWCfc2oJfdAr+Yv+AP9Cb7OJ3H/2JG1HNGz/84klThPVCc=);strokeColor=none;spacingTop=-3;spacingBottom=-3;spacingLeft=-3;spacingRight=-3;points=[];labelBackgroundColor=none;rounded=0;html=1;whiteSpace=wrap;" parent="1" vertex="1">
          <mxGeometry x="640" y="465" width="90" height="36" as="geometry" />
        </mxCell>
        <mxCell id="YzgmnVWLYQ7iU8UlS_Ah-48" value="" style="rounded=1;whiteSpace=wrap;html=1;arcSize=3;strokeColor=light-dark(#9E9892,#9E9892);" parent="1" vertex="1">
          <mxGeometry x="425" y="210" width="135" height="190" as="geometry" />
        </mxCell>
        <mxCell id="D3t2vFxjSbuaH77wl_CM-37" value="" style="group;rotation=0;" parent="1" vertex="1" connectable="0">
          <mxGeometry x="620" y="150" width="150" height="320" as="geometry" />
        </mxCell>
        <mxCell id="D3t2vFxjSbuaH77wl_CM-38" value="&lt;b&gt;&lt;font style=&quot;font-size: 14px;&quot; face=&quot;Helvetica&quot;&gt;VCN&lt;/font&gt;&lt;/b&gt;" style="whiteSpace=wrap;html=1;strokeWidth=2;dashed=1;align=left;fontFamily=Oracle Sans;verticalAlign=top;fillColor=default;fontColor=#AE562C;strokeColor=#AE562C;perimeterSpacing=0;fontSize=12;spacingLeft=5;" parent="D3t2vFxjSbuaH77wl_CM-37" vertex="1">
          <mxGeometry x="-20" y="15" width="170" height="285" as="geometry" />
        </mxCell>
        <mxCell id="D3t2vFxjSbuaH77wl_CM-39" value="" style="shape=image;verticalLabelPosition=bottom;verticalAlign=top;imageAspect=0;aspect=fixed;image=data:image/svg+xml,PHN2ZyB4bWxucz0iaHR0cDovL3d3dy53My5vcmcvMjAwMC9zdmciIHhtbG5zOnhsaW5rPSJodHRwOi8vd3d3LnczLm9yZy8xOTk5L3hsaW5rIiB2ZXJzaW9uPSIxLjEiIGlkPSJMYXllcl8xIiB4PSIwcHgiIHk9IjBweCIgdmlld0JveD0iMCAwIDQzLjUgNDIiIHN0eWxlPSJlbmFibGUtYmFja2dyb3VuZDpuZXcgMCAwIDQzLjUgNDI7IiB4bWw6c3BhY2U9InByZXNlcnZlIiB3aWR0aD0iNDMuNSIgaGVpZ2h0PSI0MiI+JiN4YTs8Zz4mI3hhOwk8Zz4mI3hhOwkJPHBhdGggc3R5bGU9ImZpbGw6I0ZGRkZGRjsiIGQ9Ik0zMS4yLDQxLjVjLTIuOCwwLTUuMy0yLTUuOS00LjhoLTcuMWMtMC42LDIuNy0zLDQuOC01LjksNC44Yy0zLjMsMC02LTIuNy02LTYmIzEwOyYjOTsmIzk7JiM5O2MwLTIuMSwxLjItNC4xLDMtNS4ybC0yLjItNi43Yy0wLjIsMC0wLjQsMC0wLjYsMGMtMy4zLDAtNi0yLjctNi02YzAtMy4zLDIuNy02LDYtNmMxLjUsMCwyLjksMC41LDQsMS42TDE2LjMsOSYjMTA7JiM5OyYjOTsmIzk7Yy0wLjMtMC44LTAuNS0xLjYtMC41LTIuNWMwLTMuMywyLjctNiw2LTZzNiwyLjcsNiw2YzAsMC44LTAuMiwxLjctMC41LDIuNWw1LjcsNC4yYzEuMS0xLDIuNS0xLjYsNC0xLjZjMy4zLDAsNiwyLjcsNiw2JiMxMDsmIzk7JiM5OyYjOTtzLTIuNyw2LTYsNmMtMC4yLDAtMC40LDAtMC42LDBsLTIuMiw2LjdjMS44LDEuMSwzLDMuMSwzLDUuMkMzNy4yLDM4LjgsMzQuNSw0MS41LDMxLjIsNDEuNXoiLz4mI3hhOwkJPHBhdGggc3R5bGU9ImZpbGw6I0ZGRkZGRjsiIGQ9Ik0yMS43LDFjMywwLDUuNSwyLjUsNS41LDUuNWMwLDAuOS0wLjIsMS44LTAuNywyLjZsNi40LDQuN2MxLTEuMSwyLjQtMS43LDQtMS43JiMxMDsmIzk7JiM5OyYjOTtjMywwLDUuNSwyLjUsNS41LDUuNWMwLDMtMi41LDUuNS01LjUsNS41Yy0wLjMsMC0wLjcsMC0xLTAuMWwtMi41LDcuNWMxLjgsMC45LDMuMSwyLjgsMy4xLDVjMCwzLTIuNSw1LjUtNS41LDUuNSYjMTA7JiM5OyYjOTsmIzk7Yy0yLjgsMC01LjEtMi4xLTUuNS00LjhoLTcuOWMtMC40LDIuNy0yLjcsNC44LTUuNSw0LjhjLTMsMC01LjUtMi41LTUuNS01LjVjMC0yLjIsMS4zLTQuMSwzLjEtNUw3LjUsMjNjLTAuMywwLjEtMC43LDAuMS0xLDAuMSYjMTA7JiM5OyYjOTsmIzk7Yy0zLDAtNS41LTIuNS01LjUtNS41czIuNS01LjUsNS41LTUuNWMxLjYsMCwzLDAuNyw0LDEuN2w2LjQtNC43Yy0wLjQtMC44LTAuNy0xLjctMC43LTIuNkMxNi4yLDMuNSwxOC43LDEsMjEuNywxIE0yMS43LDAmIzEwOyYjOTsmIzk7JiM5O2MtMy42LDAtNi41LDIuOS02LjUsNi41YzAsMC44LDAuMSwxLjYsMC40LDIuM2wtNS4xLDMuN2MtMS4xLTAuOS0yLjYtMS40LTQtMS40QzIuOSwxMS4xLDAsMTQsMCwxNy42czIuOSw2LjUsNi41LDYuNSYjMTA7JiM5OyYjOTsmIzk7YzAuMSwwLDAuMiwwLDAuMywwbDEuOSw2Yy0xLjgsMS4yLTIuOSwzLjItMi45LDUuNGMwLDMuNiwyLjksNi41LDYuNSw2LjVjMi45LDAsNS41LTIsNi4zLTQuOGg2LjNjMC44LDIuOCwzLjMsNC44LDYuMyw0LjgmIzEwOyYjOTsmIzk7JiM5O2MzLjYsMCw2LjUtMi45LDYuNS02LjVjMC0yLjItMS4xLTQuMi0yLjktNS40bDEuOS02YzAuMSwwLDAuMiwwLDAuMywwYzMuNiwwLDYuNS0yLjksNi41LTYuNWMwLTMuNi0yLjktNi41LTYuNS02LjUmIzEwOyYjOTsmIzk7JiM5O2MtMS41LDAtMi45LDAuNS00LjEsMS40bC01LjEtMy43YzAuMy0wLjcsMC40LTEuNSwwLjQtMi4zQzI4LjMsMi45LDI1LjMsMCwyMS43LDBMMjEuNywweiIvPiYjeGE7CTwvZz4mI3hhOwk8Zz4mI3hhOwkJPHBhdGggc3R5bGU9ImZpbGw6I0JCNTAxQzsiIGQ9Ik0zNywxMi4xYy0xLjYsMC0zLDAuNy00LDEuN2wtNi40LTQuN2MwLjQtMC44LDAuNy0xLjcsMC43LTIuNmMwLTMtMi41LTUuNS01LjUtNS41JiMxMDsmIzk7JiM5OyYjOTtzLTUuNSwyLjUtNS41LDUuNWMwLDAuOSwwLjIsMS44LDAuNywyLjZsLTYuNCw0LjdjLTEtMS0yLjQtMS43LTQtMS43Yy0zLDAtNS41LDIuNS01LjUsNS41czIuNSw1LjUsNS41LDUuNWMwLjMsMCwwLjcsMCwxLTAuMSYjMTA7JiM5OyYjOTsmIzk7bDIuNCw3LjVjLTEuOCwwLjktMy4xLDIuOC0zLjEsNWMwLDMsMi41LDUuNSw1LjUsNS41YzIuOCwwLDUuMS0yLjEsNS41LTQuOGg3LjljMC40LDIuNywyLjcsNC44LDUuNSw0LjhjMywwLDUuNS0yLjUsNS41LTUuNSYjMTA7JiM5OyYjOTsmIzk7YzAtMi4yLTEuMy00LjEtMy4xLTVMMzYsMjNjMC4zLDAuMSwwLjcsMC4xLDEsMC4xYzMsMCw1LjUtMi41LDUuNS01LjVTNDAsMTIuMSwzNywxMi4xeiBNMzEuMiwzOS41Yy0yLjIsMC00LTEuOC00LTQmIzEwOyYjOTsmIzk7JiM5O2MwLTIuMiwxLjgtNCw0LTRzNCwxLjgsNCw0QzM1LjIsMzcuNywzMy40LDM5LjUsMzEuMiwzOS41eiBNMTcuOCwzNC44Yy0wLjItMS4zLTAuOC0yLjQtMS43LTMuM2wzLTQuMmMwLjgsMC40LDEuNywwLjcsMi42LDAuNyYjMTA7JiM5OyYjOTsmIzk7YzAuOSwwLDEuOC0wLjIsMi42LTAuN2wzLDQuMmMtMC45LDAuOC0xLjUsMi0xLjcsMy4zSDE3Ljh6IE04LjMsMzUuNWMwLTIuMiwxLjgtNCw0LTRzNCwxLjgsNCw0YzAsMi4yLTEuOCw0LTQsNCYjMTA7JiM5OyYjOTsmIzk7UzguMywzNy43LDguMywzNS41eiBNNi41LDEzLjVjMi4yLDAsNCwxLjgsNCw0cy0xLjgsNC00LDRzLTQtMS44LTQtNFM0LjMsMTMuNSw2LjUsMTMuNXogTTE3LjcsNi41YzAtMi4yLDEuOC00LDQtNHM0LDEuOCw0LDQmIzEwOyYjOTsmIzk7JiM5O3MtMS44LDQtNCw0UzE3LjcsOC43LDE3LjcsNi41eiBNMzEuNiwxOC41bC00LjksMS42Yy0wLjgtMS42LTIuNC0yLjgtNC4yLTMuMVYxMmMxLjMtMC4yLDIuNC0wLjgsMy4yLTEuN2w2LjQsNC43JiMxMDsmIzk7JiM5OyYjOTtjLTAuNCwwLjgtMC43LDEuNy0wLjcsMi42QzMxLjUsMTcuOSwzMS41LDE4LjIsMzEuNiwxOC41eiBNMjUuOCwyMi41YzAsMi4yLTEuOCw0LTQsNHMtNC0xLjgtNC00czEuOC00LDQtNFMyNS44LDIwLjIsMjUuOCwyMi41eiYjMTA7JiM5OyYjOTsmIzk7IE0yMSwxMlYxN2MtMS45LDAuMy0zLjUsMS40LTQuMiwzLjFsLTQuOS0xLjZjMC4xLTAuMywwLjEtMC42LDAuMS0xYzAtMC45LTAuMi0xLjgtMC43LTIuNmw2LjQtNC43QzE4LjYsMTEuMiwxOS43LDExLjgsMjEsMTJ6JiMxMDsmIzk7JiM5OyYjOTsgTTExLjUsMTkuOWw0LjksMS42Yy0wLjEsMC4zLTAuMSwwLjYtMC4xLDFjMCwxLjYsMC43LDMsMS43LDRsLTMsNC4yYy0wLjgtMC40LTEuNy0wLjctMi42LTAuN2MtMC4zLDAtMC43LDAtMSwwLjFsLTIuNC03LjUmIzEwOyYjOTsmIzk7JiM5O0MxMCwyMiwxMC45LDIxLjEsMTEuNSwxOS45eiBNMzEuMiwzMGMtMC45LDAtMS44LDAuMi0yLjYsMC43bC0zLTQuMmMxLjEtMSwxLjctMi40LDEuNy00YzAtMC4zLDAtMC43LTAuMS0xbDQuOS0xLjYmIzEwOyYjOTsmIzk7JiM5O2MwLjUsMS4xLDEuNSwyLDIuNiwyLjZsLTIuNSw3LjVDMzEuOCwzMCwzMS41LDMwLDMxLjIsMzB6IE0zMywxNy42YzAtMi4yLDEuOC00LDQtNHM0LDEuOCw0LDRzLTEuOCw0LTQsNFMzMywxOS44LDMzLDE3LjZ6Ii8+JiN4YTsJPC9nPiYjeGE7PC9nPiYjeGE7PC9zdmc+;dashed=1;dashPattern=1 1;strokeColor=#bb511c;strokeWidth=3;fontColor=#AE562C;fontFamily=Helvetica;fontSize=12;fillColor=#FCFBFA;" parent="D3t2vFxjSbuaH77wl_CM-37" vertex="1">
          <mxGeometry x="130" width="31.43" height="30" as="geometry" />
        </mxCell>
        <mxCell id="D3t2vFxjSbuaH77wl_CM-29" style="vsdxID=32;fillColor=none;gradientColor=none;strokeColor=none;spacingTop=-3;spacingBottom=-3;spacingLeft=-3;spacingRight=-3;points=[];labelBackgroundColor=none;rounded=0;html=1;whiteSpace=wrap;" parent="D3t2vFxjSbuaH77wl_CM-37" vertex="1">
          <mxGeometry x="40" y="270" width="50" height="50" as="geometry" />
        </mxCell>
        <mxCell id="D3t2vFxjSbuaH77wl_CM-30" style="vsdxID=33;fillColor=#FFFFFF;gradientColor=none;shape=stencil(jVLbDoIwDP2avZKtDRKfEf/DyJBFBDJA4e9lKYatBMNbL+fs9HQVmHblrdUCZNfb5qk/Ju9LgRcBYOpSW9PPkcBMYFo0Vj9sM9Q55e3NIV30at7uhZF4sXQUkBOlSlJ+Jex9sARW1E6S6KQWggoZcgRWmGBDGpFjMBhjR3aFLwWACM+hrD/aUpKhaMw0/0p6Cj9R5pO59EfCEHHII3PoL22rMPFd73lk/1mZ+vDfz8F6NIWpKro5v8+PbC7RgWL2BQ==);strokeColor=none;spacingTop=-3;spacingBottom=-3;spacingLeft=-3;spacingRight=-3;points=[];labelBackgroundColor=none;rounded=0;html=1;whiteSpace=wrap;" parent="D3t2vFxjSbuaH77wl_CM-29" vertex="1">
          <mxGeometry x="0.5882352941176472" y="0.5882352941176471" width="48.23529411764706" height="48.23529411764705" as="geometry" />
        </mxCell>
        <mxCell id="D3t2vFxjSbuaH77wl_CM-31" style="vsdxID=34;fillColor=#FFFFFF;gradientColor=none;shape=stencil(nVbLctswDPwaXTEEwRfOafIfmcSpPXXtjOO0yd8HqkRKBEd025sME1otdrnkQHdv+8fX3WDN2/Vy/rH7fXi+7gf6Nlh7OO13l8NVnga6H+ju5XzZfb+c30/P0+/Xx3Hl+PTz/Gt8w8fU5w24NHZZ8zlVLFD4U3iY1j+9X6YGnDsYEs4dqFrMh50qIQHTvGgueUA7L6KpEgOEjD2X0ABhDz05cK5GRw+Oa3hesZpL8pHJ1/jswPganxBc7OFzhGBrfGfAaPwEPtT4jsFHhR8guhrfJ4i2i++AFX6IkGLL39b4Mmyr8BNBoho/2fyuDfwYwVKNnxhcK39S8jMBhxpfnKT1Zw8xdd1nwCv8UZIa3uEirC2zDgqeLDhFXz5ylnID3lJjfqHvbY2PAZzCl1lnR2Z8xKJIxo/+hvwBTBq0+qzUJyAlvthKm3+1iBaHdsFXLbkSwWANnsCy2nkejNr5GAHV6GVm2HWevIYV9whEivoyjQK/hBMVDznlOx16x8Ppn0LyVqiaHjMJkMA1M6NoISBqWlyzGivKTgnI94DRQVKKIkFUYZbaLMXF8tk8EJWgZHLgbaCbRk/iEq4Z3LQpqrcRMNbIkivYDRFqaEtgtbS9q8El+wIqcF+yrwzd5cYtI4t5lNyMTYSK5FZJLhmGirxYp1DJGZZuZNjoThWhaJThgpzDSnTmZhsHbhPU51DbOkBWdlrY6wRNoWGffMNeGoM6wEUjQz18OS1UgI+HldK+zKMEKOd7ySJ9WfO3+bl0ZB+G4oRycrt8AC67bbUlqcxC8Zat3N3qcTXQ7AOwauqBisE/6/3Xic4q2m7l5v8vloflDvtyOB6nK/D6f33nldJ0X6b7Lw==);strokeColor=none;spacingTop=-3;spacingBottom=-3;spacingLeft=-3;spacingRight=-3;points=[];labelBackgroundColor=none;rounded=0;html=1;whiteSpace=wrap;" parent="D3t2vFxjSbuaH77wl_CM-29" vertex="1">
          <mxGeometry width="50" height="50" as="geometry" />
        </mxCell>
        <mxCell id="D3t2vFxjSbuaH77wl_CM-32" style="vsdxID=35;fillColor=#2d5967;gradientColor=none;shape=stencil(lVbbchoxDP2afdVYlq/PafofmYYUpjRkCGnp31fbXctYBpO+7Rp7D9K5yBM9vG+f3jaTNe+n4+HH5vfu+bSd6Mtk7e51uznuTvw00eNEDy+H4+b78fDx+ry8vz3NO+enn4df8xfOyzlvwKX5lDV/lhXz7+3rsvnbx3HZjcuPzkDI63a83G/OdnklBMR1x7pkYT1ypnWBV+K6Z11KQH4EjA6SbYGRIOYWPNViCjaCty26g0gtOBnwcYRuIKcWnDIE24KbFtll8KlFRsjYIvsMmEbI1JUd0pWyvWvBY4SACtyDC6rprhy8gc5EkaI7o3zmgnKrKM+h1FXbbmop61JOYPIIf1YntfholOCCAVKk5wxGkR5y/VJB92CHrMcLOdXqvaI9ha765Lvq+WDwLT5zZGiEnyPgpLlPinvpRwFnSZGmXvZQ1aYd2k1OFONTbakV9qJtsSl0mmcl2P+1W2ZnuxafXeuV7LIp6hF8zKBKZypU2zlJhkmTDGjJi20LdGQvKcdxmWG6Jzmua1h4IHA65cCmFtyHmkZt9BTky1CnK6m+371+fgTcmxfZlfbcmhkoFKA+UjPE1lQu/Fqwri3MimVrhsXS+FtSjqBMnKx8RVyEXU9jb2LOWSWmEIohbyVYnYZlJYESsusChP3pYovtu5E5z+JxflV/lmmCkBQ4WjBKyrNM9eRKdRCQ9NUN4+ty0KK02Sg1M/EyFsRKUVmJJRSUlTyYoequjA6qFq1ZKYwKGeiVj1lAOrrBD1mPPP5cX7qeHFSjsbDBelKaTwmsmpv8J2lYPAdoz3xUmuf5V8QgxRu5SZyp3/XZ6TGfUZYPKJ0WfO5IbPEjSaRL+VaCXyyPMHR8dGB04hjxodwb+MP61uLqeL0dpV3g3YvT7gA/1Pv4y26/X67zl7/r+zsvLXd/evwL);strokeColor=none;spacingTop=-3;spacingBottom=-3;spacingLeft=-3;spacingRight=-3;points=[];labelBackgroundColor=none;rounded=0;html=1;whiteSpace=wrap;" parent="D3t2vFxjSbuaH77wl_CM-29" vertex="1">
          <mxGeometry x="1.1764705882352944" y="1.1764705882352942" width="47.64705882352941" height="47.64705882352941" as="geometry" />
        </mxCell>
        <mxCell id="D3t2vFxjSbuaH77wl_CM-33" style="vsdxID=36;fillColor=#2d5967;gradientColor=none;shape=stencil(rZPbDoIwDIafZrdNWTls16jvQcKQRWQE8PT2MhejuHBKvOu6fs2/dj+jtCuzRjGOXd+ak7rpvC8Z7Rjnui5Vq/shYrRnlBamVcfWXOrcnZvMVtrobK62w91xkYSAW4rjw2WEBB6+MgcHVLqeBQKEJJ4GRAJIY0AC0TQQII7LI6BoRtC4GqcrN7UNOMhki+wQQYgtg/GBhdH7kgRCLNY+WIQQr5/jewurVrTQ2v8CC8L/8Cs9YAg+Jih0VTkPfd//mmZIOcPR/gk=);strokeColor=none;spacingTop=-3;spacingBottom=-3;spacingLeft=-3;spacingRight=-3;points=[];labelBackgroundColor=none;rounded=0;html=1;whiteSpace=wrap;" parent="D3t2vFxjSbuaH77wl_CM-29" vertex="1">
          <mxGeometry x="19.411764705882355" y="7.058823529411764" width="10.588235294117649" height="34.705882352941174" as="geometry" />
        </mxCell>
        <mxCell id="D3t2vFxjSbuaH77wl_CM-34" style="vsdxID=37;fillColor=#2d5967;gradientColor=none;shape=stencil(nZLLDoIwEEW/pttmmIota8T/IKFII1JSio+/t7VRQQIEd/M4dzKdXsLSrspbSRA6a/RZ3lRhK8IOBFE1lTTKuoiwjLC01EaejO6bIuRt7kkfXfTVT7gH3Z5TTLwK4REq8MqOAa5VM4BjQfkYjpAmfF7AOYWxYAdUiHkB/A/HCY1wyyorguljhRvB5gXTU0awcMx387POArvpl1ZgF3zNUKq6Dl4a9n/N40rBeCx7Ag==);strokeColor=none;spacingTop=-3;spacingBottom=-3;spacingLeft=-3;spacingRight=-3;points=[];labelBackgroundColor=none;rounded=0;html=1;whiteSpace=wrap;" parent="D3t2vFxjSbuaH77wl_CM-29" vertex="1">
          <mxGeometry x="7.647058823529414" y="19.41176470588235" width="15.882352941176475" height="10.588235294117649" as="geometry" />
        </mxCell>
        <mxCell id="D3t2vFxjSbuaH77wl_CM-35" style="vsdxID=38;fillColor=#2d5967;gradientColor=none;shape=stencil(nZLdDoMgDIWfhltSWo167dx7mIiTzIlB3c/bD0aW6Qzu5+5QzteSchjlQ1P2kiEMo9FHeVHV2DDaMUTVNdKo0SpGBaO81kYejJ66yp/70jmdOumz63D1HCLPhKMQbr4SAU/TR2XvgVZ1MyASHJeAsC2SMEDIkyUAYTMsjPGGc91WwIZ9/ew04UBhYL2YOOMCw8Bz/J/2D2v/+Z++AKx4xaJWbetTNb9/j5Et+QhScQc=);strokeColor=none;spacingTop=-3;spacingBottom=-3;spacingLeft=-3;spacingRight=-3;points=[];labelBackgroundColor=none;rounded=0;html=1;whiteSpace=wrap;" parent="D3t2vFxjSbuaH77wl_CM-29" vertex="1">
          <mxGeometry x="25.882352941176475" y="19.41176470588235" width="15.882352941176475" height="10.588235294117649" as="geometry" />
        </mxCell>
        <mxCell id="YzgmnVWLYQ7iU8UlS_Ah-1" value="" style="group" parent="D3t2vFxjSbuaH77wl_CM-37" vertex="1" connectable="0">
          <mxGeometry y="40" width="140" height="200" as="geometry" />
        </mxCell>
        <mxCell id="YzgmnVWLYQ7iU8UlS_Ah-2" value="&lt;b&gt;&lt;font style=&quot;font-size: 13px;&quot; face=&quot;Helvetica&quot;&gt;Private Subnet&lt;/font&gt;&lt;/b&gt;" style="whiteSpace=wrap;html=1;strokeWidth=1;dashed=1;align=center;fontFamily=Oracle Sans;verticalAlign=top;fillColor=none;fontColor=#AE562C;perimeterSpacing=0;strokeColor=#AE562C;fontSize=12;spacingLeft=5;" parent="YzgmnVWLYQ7iU8UlS_Ah-1" vertex="1">
          <mxGeometry x="-10" y="17.5" width="150" height="182.5" as="geometry" />
        </mxCell>
        <mxCell id="YzgmnVWLYQ7iU8UlS_Ah-21" style="vsdxID=21;fillColor=none;gradientColor=none;strokeColor=none;spacingTop=-3;spacingBottom=-3;spacingLeft=-3;spacingRight=-3;points=[];labelBackgroundColor=none;rounded=0;html=1;whiteSpace=wrap;" parent="YzgmnVWLYQ7iU8UlS_Ah-1" vertex="1">
          <mxGeometry x="80" y="140" width="60" height="50" as="geometry" />
        </mxCell>
        <mxCell id="YzgmnVWLYQ7iU8UlS_Ah-22" style="vsdxID=22;fillColor=#FFFFFF;gradientColor=none;shape=stencil(lVbbVhsxDPyafdWxJF+fKfwHB0Kzp2nCCaGFv6/T9VXZC7xtHMkjj8ZjDXz3tn983Q2k3i7n06/d3/H5sh/4x0A0Hve783iJXwPfD3z3cjrvfp5P78fn6ffr4zXy+vX79Oe6w8eUpy1YvGaR+pxWUKn/vx+m8Kf38xSPKUGB0ikB+wz1QdMCM9iQYtJSCEAuRfG0RAEUpai0FDwos4ZOBN736MEC6x4fAzgBHyuyPXwTlNG7gx/GY8NTEz0tGA2Wl+PVt4KB+h4YBcGv8aDAm54GjRBMT4MB7llgDWgECwQUehp4tf/I4FwP3TSydECDF+DkwMgWGCDTg8eikx6X8GO7scfHRlsZTAEK/Fh4EAI0lfdcEYK2qwJ0wCzgFegg4EORW1EgOHF6jtQLAeaYBfCYYQV4s229fLSNXcj4MnbUDm5ia2DaxNZg+JvgtlrFMngUmMQuuszYHlgozsHqTWvuVYZmQCG36KJenLsRRQIyBCgavmI40TIo++xMsCzTEihhjKpskMu0kRBhjNEjhC07yleg3goGvXopY44VptBctwTlGJR4FbD4YoVnMIKlaBOJuCX4iCXfJFMcsuBrcBLfFUIK/owpbL1KHsHI4/viqxnfu2q12SeiJIRKggLre3wqe80qpc0oCUavJGC1UGFF82+f6l8zXaqe396Uq5kTCs3zCVEYfT06i2eB8PYEWO4Liob7KFvfE24RHIqG18RMeI36uuDanelWyiv4XM+yhN/z1Wakk24ZaJuChXUtC1ZllCoWakHUaznPJtW+NzzUhOr4Gf32zTbRV0W76mTJt+Mq9zGzVG2Ot/GjjsYv4+EwTdbt/3KUjkvTGM73/wA=);strokeColor=none;spacingTop=-3;spacingBottom=-3;spacingLeft=-3;spacingRight=-3;points=[];labelBackgroundColor=none;rounded=0;html=1;whiteSpace=wrap;" parent="YzgmnVWLYQ7iU8UlS_Ah-21" vertex="1">
          <mxGeometry width="58.571428571428584" height="48.630136986301366" as="geometry" />
        </mxCell>
        <mxCell id="YzgmnVWLYQ7iU8UlS_Ah-23" style="vsdxID=23;fillColor=#FFFFFF;gradientColor=none;shape=stencil(pVnJchs5DP0aXVkkwfWc5T9SiTNWjWOnFCdx/n6g6eb2oCbtyk2iAD4S2wOoE737cf/p+93J6h/Pl6d/736fvzzfn+j9ydrz4/3d5fzMn0704UTvvj5d7v65PP18/LJ9//7pKnn99O3p13WHl03PkzJXJav/bAtWUfp/4eMm/vnnZZM32+9BK+92DQMq+sXuQlEZvwvtS7yyq73QvqKVC7vQvmScimGGzjopjujGKwfw0SidRngTlMmAb1TIgB9UiFN8q4wB/Ciuz1KZAD+pZACflPeAn1f3ZwEP+FWn4ievCPAtg8URPyXlaMS3Wdnc4z+cH7tgSfxz8di2QiV8bspnNs0YXQ7DCxScCjQqVO/eVjDK2FHBlFsdmDBzAI8W9EZlMKBVCeKX495iAEsHNqnjAKqhYeTOLYCq4Sb4MoCDPrZVL14jIJnpaTsVUy0e4njakJWG07IjtR9PG0iEW0bnIr7nAybADwLfs7cy4HdJuYO5oBxYq0kd4DvdComRO+9gxJdF/O6ULbcwWpb356zNUO56y5bcNspCueu9RFKKDvw/BkyvAWxxW17Z+CZxB7trFafh2Liq+EdST1QWSh9BIBpSwY2GIFPY4QCZScZCIpAWvMP04bHuJlF3WSoDvg2LosUkkyEQbbXWLBD44BF4h8E0JCKbhKb4fA2kPWl6toiJAN9KazE1ux1uX4WO3N5VYyP2LeBcXtbg1OrJa8G75D4Gdwr5XmI7hWy/guaeJSyhY20sOmzsdSjXqlGLz6LV4NzygO4FUbmovB3R2VlhBOf6jDzFK/a4MvQKOw4cdiWP+wtisYLYZDzf4BUraKVroAlkbp911XBDf+4aa2wrE4b3oqTOhLl+mb8QXjQ618YNwkerDMzF/Ao5K9tUDnAD0RNLiB0njkfaFKxJvg0yhTVrMHdJiz1LkXl9vei2nXQMElsWqyU4NQo+BpfN7Q1w23j0leBWziYS/MrPWKZlZ2tlpVzwc26DQ1miNnE1MsxYK+vE0/jZ1d6pprQvoXuE70S0W9ko9p1H6w9wLmRmxfZgZXqe98DtJG/PozOQlBMkxa6AauY1XH0sDHooCh77iKmwh3Zv1U3O5a+etH+nkGqVOA6zqlJCXJIiN1gBE0zOI+xUgxmW1Lz/JTkOdfHbiqp4/dB6BL8xDBWZoxATzXfbtPBlllVNphfPgcm97d4hKEKz33h1ofoQUuG7tyGSUnTgdpibO439PHZBQKlrcg3q1ANn6SjvG0cW43CDAAd2OC7Ao4htw0Jt04ybKHD1GjPBzSdDtmuKb0JI2MY4NzV6Da5XPhzJ/XGYBAXdqGBPLujGhbyFFnNholsKs+LYR0NVmKZFCiriUCifsviikJQmihY9cpuJ9WD1OMI6Bt9i5eNM/0h2PJOyFCHne+gwRVbS6HEzz+Hy/Fykl0/N8qWu6fQvdTgAsRTWvP49r43c87e3/lWt0jxO/FxVDHhXC+P2M0Th+WNTLSYO/tD+S/h6fnjY/orof8f/Hnhp+9+CPvwH);strokeColor=none;spacingTop=-3;spacingBottom=-3;spacingLeft=-3;spacingRight=-3;points=[];labelBackgroundColor=none;rounded=0;html=1;whiteSpace=wrap;" parent="YzgmnVWLYQ7iU8UlS_Ah-21" vertex="1">
          <mxGeometry width="60" height="50" as="geometry" />
        </mxCell>
        <mxCell id="YzgmnVWLYQ7iU8UlS_Ah-24" style="vsdxID=24;fillColor=#2d5967;gradientColor=none;shape=stencil(pVrbctw2DP2afdWIN5B8TtP/yDRO7alrZxyndf6+2llRBHGw4O70zVEgHhDAwU17Cp9+PH75/nDy64/3t9e/Hv59+vr+eAq/nbx/enl8eHt63/46hc+n8Onb69vDn2+vP1++Xv79/ctZ8vzX36//nE/4uLwXl5DOL/n11/6gLPny5PeL/PPTC5N3tFT6fy+ksHjjhfUu4eX8X1x+Fdr88fPtcl/X3ih5f2N/EvcTPvx+RD9zfxJiU2L9CPu1XL/W/iisQlUJ7cIioH3tB+9YLo3YPiN2WmIcsSfAtCQ/Irs6wh5m911XAdvU+NVNYMNuqoc6wtZ+qu9WE+aucOMQllXcuE78HJgb251XAZ0Xl6fQZYllhM6LiRx9P7ZZAq4dmW38EcsCO/mlhBF7tZATM5Pj8j22NzqRgBWYTOIWTHLLWk1MKl2rpsaImV2PzxZcwQLNjH2MXMLG2YN/XVwkNtrYme7dsIOATsBi2sKzCOgkoQlDy5Fp69J907HltbmUhS0ZZV+bkE9lEcipLkkgg72V+Io2n5SojoAcIMYQGT09QY7MQdeQY1xcGJEJUmdkJGnWXm3sLe9UByEu42zLciQKxhbiEj74nmzCIWUnb56XG34cwb0SaGD1zRpw9WRf3XuoGy5Lu7st1gS5vcNSyax4KGRhO6SYUrS2gip8HjxY3WGkh0nAFdkghAwu34q/wN4Kjoy33tW1J3aXNm8Dx7YxM77JPkUFyNAGTl4oLAh2lepiARSp0UQ+w/nRNNFWKMjd9QKrardoRKiRfYO7fTB/AbzsRbPvTBfL+1rSsVdISaFr2t+jzER6vGgC1UO5fjYvJEd/aqmexpkmZEOUlZxdbzLPJiCWdTyxanWT6rT2AnOkJLvzJmiQlDFnC/aDTS19YwrNIot5GSKQQNeeHR0euyMVHPG2MiVrR8nQLwRnEbKCrc4V0tYXR6RNX2mswjJJq0AF9JXGcjNwpaXjx7Z6g1OSzyMyp88xNhkxPmHbyE23juzZeikrYCtk3eDtQgNZcV8I6NKp7w926WQfX6G0zubmAm1AxBaE10d/2HUWE13kWkywtsrhsY29EcabhOwlNn+1NiRbBEpgq+k6h1hV7voqI1EU+tI6zTY0Ay/MDA6PbTsFVi4OY43INcAkaBW3yih5UxDeyaGp+MhQYk32/kQWFRiicbqgCGGWMe/RLQM8TTs5Ub+rM5Vl8m2PJUahLNZnlWDgZpW3eb1YqJwMDRXrqDL4Ht47poE+rYRR5Nrsh0mgH9oGHtwkVdyeeVxx2Lf2yGdmyz77yfRzOCSgSNCcLCK+ym4UYh4mxQrkDwXIz+/TLAexoVgp2MM5rkQC7r8CiyDmNTkrQnQEuXOHvQjukwPuJiLrTA34DLsJwBezKsxJ05Y0ZljJ9ne4wllwiUtdt9cMPuC6UoH3WFTjCqESYKFhtStcvEnPtvZY1KLIdkHZtilLLzAUjDLgp9qTpMODW87DsqDAJ8VSNNk0Rki5jZcHtuKkCptG/ECTzAqTlC7GIaFw5ZUcrH7A6slNNo1Ky+dkylXSfcIOSklkcocB4Ya5JMpvUyKJxaKwAhtNqwVgL+yXKRM1IxiJVlzHYqtHAfwj96FkfutIAZbQx5l97y4TPfkRlnAZSWZIKsPhcWbDwAQvb0u4f532hnw10HtD2dEzM7ZH846LJptnpeciJf9g+qM85yFNvhsqPCRYeys8JMx9Cg9nV1d4SAJb8hB7ceQheHvCwzzZkCs8zDifKjzM9ST9I3m4i9weG1kkKmWplQkIAZ+To7kVng9Xd78wG9+K/cUX+Vlw6lUIWvD7jMLRMmu8FUcUmRCRoQV/0IAULbPcpHC0KI03krSIxKgwdHpxhaIFuwTJ0qKUaaDp6PEJR+tsL6KQtOJWk3fFbYpL2ngieVrlsgMiFLcLVflGnyFJVFk1lfFVXn7GPsu0M+ntj/7DrW9Pz8+X333x/5c/9NoeXX4kFj7/Bw==);strokeColor=none;spacingTop=-3;spacingBottom=-3;spacingLeft=-3;spacingRight=-3;points=[];labelBackgroundColor=none;rounded=0;html=1;whiteSpace=wrap;" parent="YzgmnVWLYQ7iU8UlS_Ah-21" vertex="1">
          <mxGeometry x="0.7142857142857144" y="0.684931506849315" width="57.142857142857146" height="47.26027397260274" as="geometry" />
        </mxCell>
        <mxCell id="YzgmnVWLYQ7iU8UlS_Ah-6" style="vsdxID=53;fillColor=none;gradientColor=none;strokeColor=none;spacingTop=-3;spacingBottom=-3;spacingLeft=-3;spacingRight=-3;points=[];labelBackgroundColor=none;rounded=0;html=1;whiteSpace=wrap;" parent="YzgmnVWLYQ7iU8UlS_Ah-1" vertex="1">
          <mxGeometry x="80" y="80" width="50" height="50" as="geometry" />
        </mxCell>
        <mxCell id="YzgmnVWLYQ7iU8UlS_Ah-7" style="vsdxID=54;fillColor=none;gradientColor=none;strokeColor=none;spacingTop=-3;spacingBottom=-3;spacingLeft=-3;spacingRight=-3;points=[];labelBackgroundColor=none;rounded=0;html=1;whiteSpace=wrap;" parent="YzgmnVWLYQ7iU8UlS_Ah-6" vertex="1">
          <mxGeometry width="50" height="50" as="geometry" />
        </mxCell>
        <mxCell id="YzgmnVWLYQ7iU8UlS_Ah-8" style="vsdxID=55;fillColor=#FFFFFF;gradientColor=none;shape=stencil(lZPRDoIwDEW/Zq9LWUHCs+J/EAVZRCATFP/eYYdsAzW+td2922mzMtxey6zNmYBrp5pzfpfHrmS4Y0LIusyV7HTEMGW4LRqVn1TT10fK22xUjtGluY03DOSLOEajScCDCknC482rsif9oVdkCEggeIjGEfgWGASVwChMmsQchVGgqzBpEvLQfrWStUUJDuKb+QMhuHgz8ERnteDyTnDWVBzcVTiNvnFnCN/o9Cyi2CUEFy8Ab3xWB+hLfOJVxFnuI3+AnA1L6kEsG/HJB1zOxkNfBf39Hf/V62D++4WsKlod+9zfFV2iPcP0CQ==);strokeColor=none;spacingTop=-3;spacingBottom=-3;spacingLeft=-3;spacingRight=-3;points=[];labelBackgroundColor=none;rounded=0;html=1;whiteSpace=wrap;" parent="YzgmnVWLYQ7iU8UlS_Ah-7" vertex="1">
          <mxGeometry x="0.5952380952380952" y="0.5952380952380952" width="48.80952380952382" height="48.80952380952382" as="geometry" />
        </mxCell>
        <mxCell id="YzgmnVWLYQ7iU8UlS_Ah-9" style="vsdxID=56;fillColor=#FFFFFF;gradientColor=none;shape=stencil(lZXRdoIwDIafprc9aUMpvXb6Hp6JgzMmHsSNvf1gLbQNCHpX4h/88iehDHe34njNmYRb29Sf+U95aguGb0zK8lLkTdn2J4Z7hrtz3eQfTX2/nOzz9Tgoh9NX/T28obN5BjmqIUvCr41Ijtl/4GD17/fGJgiXoXhiXIYgKdBJJ9IcR5ELJVy6SIdzkQulPMHwz6vyEsIGCRN+JlZpgxRfgFEEN6jJV5ClhDfwCqlqEbgvR8S8VE95e5c0wdU8lTFu77cmtIprEdMGIs+v9GPYIGG5GZQ1SBCzHstZPXI2LDhzCZdnkIzB5sy+qt/aCXihxbBuWaZiyyD2C6hZdAghdmp9YSAi21wWYHTyREInb+J3EQHANro5Sh41R8U7TeQLGy2Ih56BQgXbPJWCVPPcenj9c9thDNcp/U5O3Ry5Um5EjErsXPjorLu5Nrr9wV8E57Kq7D0S/k4vjj5kLx3c/wE=);strokeColor=none;spacingTop=-3;spacingBottom=-3;spacingLeft=-3;spacingRight=-3;points=[];labelBackgroundColor=none;rounded=0;html=1;whiteSpace=wrap;" parent="YzgmnVWLYQ7iU8UlS_Ah-7" vertex="1">
          <mxGeometry width="50" height="50" as="geometry" />
        </mxCell>
        <mxCell id="YzgmnVWLYQ7iU8UlS_Ah-10" style="vsdxID=57;fillColor=none;gradientColor=none;strokeColor=none;spacingTop=-3;spacingBottom=-3;spacingLeft=-3;spacingRight=-3;points=[];labelBackgroundColor=none;rounded=0;html=1;whiteSpace=wrap;" parent="YzgmnVWLYQ7iU8UlS_Ah-6" vertex="1">
          <mxGeometry x="1.1904761904761905" y="1.1904761904761905" width="47.61904761904763" height="47.61904761904762" as="geometry" />
        </mxCell>
        <mxCell id="YzgmnVWLYQ7iU8UlS_Ah-11" style="vsdxID=58;fillColor=#2d5967;gradientColor=none;shape=stencil(lZXLcoMwDEW/xlvGWDzidZr8R6YhhSmFDCEt+ftCbbAkB+Lu/LgyR/IVFrC/ladrIZS89V37WfxU574U8CaUqpqy6Kp+HAk4CNhf2q746Np7czbz62lSTqOv9ns6YTBxOo3SeIpS8mFW5N/saMR11SBxEqlkXft+78zJsdmMI62tOsZyOSgyfdipsrtAd2H5drpOJgmWzra4JIXSO0qFsOcVKSkaqgNQyVO4scZ5RgCZnBPqXSRjSukYONRMueQBXAAOY6OETv+84B6kno9bIBVF1LnLm175AL774KX9XniVGTtzNVzJ38so88puneRSSr2UxihbqK20nCqsszw9hwWvuzCImkV5wmkpKlKE2QQFhPkEBdiVhEPyhoPFWesdB5uUfstxfcDlIwx01+z6EwqKFUF/rgCf/jtgHLj//aWqa/Nc4H3+PoxL5m2Bwy8=);strokeColor=none;spacingTop=-3;spacingBottom=-3;spacingLeft=-3;spacingRight=-3;points=[];labelBackgroundColor=none;rounded=0;html=1;whiteSpace=wrap;" parent="YzgmnVWLYQ7iU8UlS_Ah-10" vertex="1">
          <mxGeometry width="47.61904761904763" height="47.61904761904762" as="geometry" />
        </mxCell>
        <mxCell id="YzgmnVWLYQ7iU8UlS_Ah-12" style="vsdxID=59;fillColor=#2d5967;gradientColor=none;shape=stencil(pZJbDsIgFERXwy+hQBW/a91Hk1IhIjQUX7sXcmNsNaWx/s1wz32EDGLVoJpeIkqG4N1J3nQbFGJ7RKm2SnodokKsRqzqnJdH7y62Bd83iUzq7K5pwh36SOqg5AGuIOAPgBptR+iruArOoCvB7PosOv0BjkUxpTdYlPOjdxyXf/GCY7qd57/u+ZVfuGeZj+Idl04bA2kb1z/jFZ8gmqx+Ag==);strokeColor=none;spacingTop=-3;spacingBottom=-3;spacingLeft=-3;spacingRight=-3;points=[];labelBackgroundColor=none;rounded=0;html=1;whiteSpace=wrap;" parent="YzgmnVWLYQ7iU8UlS_Ah-10" vertex="1">
          <mxGeometry x="6.547619047619049" y="30.35714285714285" width="34.523809523809526" height="10.119047619047617" as="geometry" />
        </mxCell>
        <mxCell id="YzgmnVWLYQ7iU8UlS_Ah-13" style="vsdxID=60;fillColor=#2d5967;gradientColor=none;shape=stencil(jVLRDoMgDPwaXg2UOeezc/9hJk4ypwZ107+fpCRClxnf2nLH9eCYzIa66BUDPoyme6qPLseaySsD0G2tjB7XismcyazqjHqYbmpL7PvCIm316t72hhl5MbcU4Au2gmN/Q+x9MggWeJwk0Vk4gggZfAYyWGAjgcNIinGDUxql6Z7yxnADgEheQmV/OzfioW5MZHfNWoUkFCVWiVF/JRkijtokJv2ng9+t6Iv/s0l+tdHt4QSsxRadSjcNJs8/p1FbRxhTmX8B);strokeColor=none;spacingTop=-3;spacingBottom=-3;spacingLeft=-3;spacingRight=-3;points=[];labelBackgroundColor=none;rounded=0;html=1;whiteSpace=wrap;" parent="YzgmnVWLYQ7iU8UlS_Ah-10" vertex="1">
          <mxGeometry x="33.92857142857144" y="34.523809523809526" width="2.380952380952381" height="2.380952380952381" as="geometry" />
        </mxCell>
        <mxCell id="YzgmnVWLYQ7iU8UlS_Ah-14" style="vsdxID=61;fillColor=#2d5967;gradientColor=none;shape=stencil(pZLbDsIgEES/Zl8JZW3E51r/o0mpEBEa2nr5e0Fi2qrpRd92Z8+QCRnArJFFLYDRpnX2JK6qbCXgHhhTRgqnWj8B5oBZZZ04OtuZMu51Ecgwne0lvHCLvh0nnAcXo/eo0Od2iLBWZgDT38CETqCv4yJ4VdoZePwPHEmyGcFBSSdyp2SL/xl65avhM9Jqw0ykBQY/9NWplNaxecP7e9W8FGuK+QM=);strokeColor=none;spacingTop=-3;spacingBottom=-3;spacingLeft=-3;spacingRight=-3;points=[];labelBackgroundColor=none;rounded=0;html=1;whiteSpace=wrap;" parent="YzgmnVWLYQ7iU8UlS_Ah-10" vertex="1">
          <mxGeometry x="6.547619047619049" y="6.5476190476190474" width="10.11904761904762" height="10.119047619047617" as="geometry" />
        </mxCell>
        <mxCell id="YzgmnVWLYQ7iU8UlS_Ah-15" style="vsdxID=62;fillColor=#2d5967;gradientColor=none;shape=stencil(pZJJDoMwDEVP422UxGXYU3oPJEKJmhIUoMPtm8iqCnSE7vzj920r+oBZVxetAsm73tmDOuuyrwG3IKVuauV07yvAHDCrrFN7Z4emJN0WgQzV0Z7ChAv5BOfBI/mVNKkdoUY3I3QleN/wEp2vXwSvRac/kG6YTCZwikxEH2bHLI3/M4iIJfje8HzSYsOXk34w+OIRmkobQ5kb9+ch808UUMxv);strokeColor=none;spacingTop=-3;spacingBottom=-3;spacingLeft=-3;spacingRight=-3;points=[];labelBackgroundColor=none;rounded=0;html=1;whiteSpace=wrap;" parent="YzgmnVWLYQ7iU8UlS_Ah-10" vertex="1">
          <mxGeometry x="18.45238095238096" y="6.5476190476190474" width="10.11904761904762" height="10.119047619047617" as="geometry" />
        </mxCell>
        <mxCell id="YzgmnVWLYQ7iU8UlS_Ah-16" style="vsdxID=63;fillColor=#2d5967;gradientColor=none;shape=stencil(pZLbDsIgEES/Zl8JZW3E51r/o0mpEBEa2nr5e0Fi2qrpRd92Z8+QCRnArJFFLYDRpnX2JK6qbCXgHhhTRgqnWj8B5oBZZZ04OtuZMu51Ecgwne0lvHCLvh0nnAcXo/eo0Od2iLBWZgDT38CETqCv4yJ4VdoZePwPHEmyGcFBSSdyp2SL/xl65avhM9Jqw0ykBQY/9NWplNaxecP7e9W8FGuK+QM=);strokeColor=none;spacingTop=-3;spacingBottom=-3;spacingLeft=-3;spacingRight=-3;points=[];labelBackgroundColor=none;rounded=0;html=1;whiteSpace=wrap;" parent="YzgmnVWLYQ7iU8UlS_Ah-10" vertex="1">
          <mxGeometry x="6.547619047619049" y="18.45238095238095" width="10.11904761904762" height="10.119047619047617" as="geometry" />
        </mxCell>
        <mxCell id="YzgmnVWLYQ7iU8UlS_Ah-17" style="vsdxID=64;fillColor=#2d5967;gradientColor=none;shape=stencil(pZJJDoMwDEVP422UxGXYU3oPJEKJmhIUoMPtm8iqCnSE7vzj920r+oBZVxetAsm73tmDOuuyrwG3IKVuauV07yvAHDCrrFN7Z4emJN0WgQzV0Z7ChAv5BOfBI/mVNKkdoUY3I3QleN/wEp2vXwSvRac/kG6YTCZwikxEH2bHLI3/M4iIJfje8HzSYsOXk34w+OIRmkobQ5kb9+ch808UUMxv);strokeColor=none;spacingTop=-3;spacingBottom=-3;spacingLeft=-3;spacingRight=-3;points=[];labelBackgroundColor=none;rounded=0;html=1;whiteSpace=wrap;" parent="YzgmnVWLYQ7iU8UlS_Ah-10" vertex="1">
          <mxGeometry x="18.45238095238096" y="18.45238095238095" width="10.11904761904762" height="10.119047619047617" as="geometry" />
        </mxCell>
        <mxCell id="YzgmnVWLYQ7iU8UlS_Ah-18" style="vsdxID=65;fillColor=#2d5967;gradientColor=none;shape=stencil(pZJJDoMwDEVP422UxGXYU3oPJEKJmhIUoMPtm8iqCnSE7vzj920r+oBZVxetAsm73tmDOuuyrwG3IKVuauV07yvAHDCrrFN7Z4emJN0WgQzV0Z7ChAv5BOfBI/mVNKkdoUY3I3QleN/wEp2vXwSvRac/kG6YTCZwikxEH2bHLI3/M4iIJfje8HzSYsOXk34w+OIRmkobQ5kb9+ch808UUMxv);strokeColor=none;spacingTop=-3;spacingBottom=-3;spacingLeft=-3;spacingRight=-3;points=[];labelBackgroundColor=none;rounded=0;html=1;whiteSpace=wrap;" parent="YzgmnVWLYQ7iU8UlS_Ah-10" vertex="1">
          <mxGeometry x="30.357142857142865" y="6.5476190476190474" width="10.11904761904762" height="10.119047619047617" as="geometry" />
        </mxCell>
        <mxCell id="YzgmnVWLYQ7iU8UlS_Ah-19" style="vsdxID=66;fillColor=#2d5967;gradientColor=none;shape=stencil(pZJJDoMwDEVP422UxGXYU3oPJEKJmhIUoMPtm8iqCnSE7vzj920r+oBZVxetAsm73tmDOuuyrwG3IKVuauV07yvAHDCrrFN7Z4emJN0WgQzV0Z7ChAv5BOfBI/mVNKkdoUY3I3QleN/wEp2vXwSvRac/kG6YTCZwikxEH2bHLI3/M4iIJfje8HzSYsOXk34w+OIRmkobQ5kb9+ch808UUMxv);strokeColor=none;spacingTop=-3;spacingBottom=-3;spacingLeft=-3;spacingRight=-3;points=[];labelBackgroundColor=none;rounded=0;html=1;whiteSpace=wrap;" parent="YzgmnVWLYQ7iU8UlS_Ah-10" vertex="1">
          <mxGeometry x="30.357142857142865" y="18.45238095238095" width="10.11904761904762" height="10.119047619047617" as="geometry" />
        </mxCell>
        <mxCell id="YzgmnVWLYQ7iU8UlS_Ah-63" value="" style="group" parent="YzgmnVWLYQ7iU8UlS_Ah-1" vertex="1" connectable="0">
          <mxGeometry x="-90" y="152.18" width="170" height="35.769999999999996" as="geometry" />
        </mxCell>
        <mxCell id="YzgmnVWLYQ7iU8UlS_Ah-64" value="" style="endArrow=open;html=1;startArrow=open;startFill=0;endFill=0;strokeColor=#312d2a;elbow=vertical;rounded=0;fontFamily=Helvetica;fontColor=#312D2A;" parent="YzgmnVWLYQ7iU8UlS_Ah-63" edge="1">
          <mxGeometry x="-1028.888888888889" y="-245.69000000000005" width="55.55555555555556" height="50" as="geometry">
            <mxPoint x="170" y="12.800000000000182" as="sourcePoint" />
            <mxPoint y="12.800000000000182" as="targetPoint" />
          </mxGeometry>
        </mxCell>
        <mxCell id="YzgmnVWLYQ7iU8UlS_Ah-66" value="&lt;div style=&quot;&quot;&gt;&lt;p style=&quot;text-align: center; margin: 0px; text-indent: 0px; direction: ltr;&quot;&gt;&lt;font style=&quot;color: rgb(0, 0, 0); direction: ltr; letter-spacing: 0px; line-height: 120%; opacity: 1;&quot;&gt;&lt;font style=&quot;font-size: 13px;&quot; face=&quot;Helvetica&quot;&gt;Port 1521&lt;/font&gt;&lt;br&gt;&lt;/font&gt;&lt;/p&gt;&lt;/div&gt;" style="verticalAlign=middle;align=left;vsdxID=9;fillColor=none;gradientColor=none;shape=stencil(nZBLDoAgDERP0z3SIyjew0SURgSD+Lu9kMZoXLhwN9O+tukAlrNpJg1SzDH4QW/URgNYgZTkjA4UkwJUgGXng+6DX1zLfmoymdXo17xh5zmRJ6Q42BWCfc2oJfdAr+Yv+AP9Cb7OJ3H/2JG1HNGz/84klThPVCc=);strokeColor=none;spacingTop=-3;spacingBottom=-3;spacingLeft=-3;spacingRight=-3;points=[];labelBackgroundColor=none;rounded=0;html=1;whiteSpace=wrap;" parent="YzgmnVWLYQ7iU8UlS_Ah-63" vertex="1">
          <mxGeometry x="88.15" y="15.77" width="61.85" height="20" as="geometry" />
        </mxCell>
        <mxCell id="YzgmnVWLYQ7iU8UlS_Ah-65" value="&lt;div style=&quot;&quot;&gt;&lt;p style=&quot;text-align: center; margin: 0px; text-indent: 0px; direction: ltr;&quot;&gt;&lt;font style=&quot;color: rgb(0, 0, 0); direction: ltr; letter-spacing: 0px; line-height: 120%; opacity: 1;&quot;&gt;&lt;font style=&quot;font-size: 13px;&quot; face=&quot;Helvetica&quot;&gt;Port 22&lt;/font&gt;&lt;br&gt;&lt;/font&gt;&lt;/p&gt;&lt;/div&gt;" style="verticalAlign=middle;align=left;vsdxID=9;fillColor=none;gradientColor=none;shape=stencil(nZBLDoAgDERP0z3SIyjew0SURgSD+Lu9kMZoXLhwN9O+tukAlrNpJg1SzDH4QW/URgNYgZTkjA4UkwJUgGXng+6DX1zLfmoymdXo17xh5zmRJ6Q42BWCfc2oJfdAr+Yv+AP9Cb7OJ3H/2JG1HNGz/84klThPVCc=);strokeColor=none;spacingTop=-3;spacingBottom=-3;spacingLeft=-3;spacingRight=-3;points=[];labelBackgroundColor=none;rounded=0;html=1;whiteSpace=wrap;" parent="YzgmnVWLYQ7iU8UlS_Ah-1" vertex="1">
          <mxGeometry y="80" width="49.5" height="20" as="geometry" />
        </mxCell>
        <mxCell id="D3t2vFxjSbuaH77wl_CM-40" style="vsdxID=4;fillColor=none;gradientColor=none;strokeColor=none;spacingTop=-3;spacingBottom=-3;spacingLeft=-3;spacingRight=-3;points=[];labelBackgroundColor=none;rounded=0;html=1;whiteSpace=wrap;" parent="1" vertex="1">
          <mxGeometry x="410" y="190" width="35" height="44" as="geometry" />
        </mxCell>
        <mxCell id="D3t2vFxjSbuaH77wl_CM-41" style="vsdxID=5;fillColor=none;gradientColor=none;strokeColor=none;spacingTop=-3;spacingBottom=-3;spacingLeft=-3;spacingRight=-3;points=[];labelBackgroundColor=none;rounded=0;html=1;whiteSpace=wrap;" parent="D3t2vFxjSbuaH77wl_CM-40" vertex="1">
          <mxGeometry width="35" height="44" as="geometry" />
        </mxCell>
        <mxCell id="D3t2vFxjSbuaH77wl_CM-42" style="vsdxID=6;fillColor=#FFFFFF;gradientColor=none;shape=stencil(lZJBcsIwDEVP463GkjDYa0rvwUBoPKQJY0KB2+MgUZJQ6LCTv58szfc3PN+Xy11hyO7b1GyLY1y3peEPQxTrskixzZXhheH5pknFV2oO9VrOu2VHdtV389O9cJK+iYdJ10T2LEII4PCqfAq/OiRpQAHQQ0BtUcl7YBLpREoBeYVUmSFYpxCLZJXQoyOws/7oKta9Ve1gT5wCP2fdELbPSbTvvDumHYLnV26Fu7/46INa47MUhm71LeXfWdOhYfmv6IVhIxNuu//J/p+Dd/lc3EO3iVUlme3fj0OaJQk4Ly4=);strokeColor=none;spacingTop=-3;spacingBottom=-3;spacingLeft=-3;spacingRight=-3;points=[];labelBackgroundColor=none;rounded=0;html=1;whiteSpace=wrap;" parent="D3t2vFxjSbuaH77wl_CM-41" vertex="1">
          <mxGeometry x="0.5384615384615384" y="0.5238095238095237" width="33.38461538461539" height="42.95238095238095" as="geometry" />
        </mxCell>
        <mxCell id="D3t2vFxjSbuaH77wl_CM-43" style="vsdxID=7;fillColor=#FFFFFF;gradientColor=none;shape=stencil(lVVdc8IgEPw1eb2B4/vZtv/DqbFmao0TtbX/vqRA5IiD8Y1c9sjushcasTrt1se2QXY6D/1n+9NtzrtGvDSI3WHXDt3Zrxrx2ojVth/aj6G/HDbh+bgekePqq/8ed7iGPulAu7EL2W+oIOj/57cA33eHDO40CILmBpx5Aq84KJnj3y9D4MNjhwKmY0ssaQcqVK4YKsaCSKxjyWpgCSXitxhojCgx8Yly79Kdu+EM8Iof0oLRtKH8QikQGThHBebcoxwJAqlA74KRVKAA5qi+mb2Ubtaw6PieTMdD+KPssarTkjrNQFaoc7CKSlVgK9YwCva55YvBdRMp+MEJzcCG7FyGadpsypJhk6kpS9yCTVOYpsVTLsIkDaiEStPiUi4XHolviHvcbVCFb6xy3iqTtmxzTHnIGij90j3LgRtqX25M9MplMnEy2SG1L4m5jSICq0Tohl8Uohm8HlDPmc/iX5lc/6t09Eddn67nRrcO9ovb7bTt9vtwueXvy9vMl8JNKF7/AA==);strokeColor=none;spacingTop=-3;spacingBottom=-3;spacingLeft=-3;spacingRight=-3;points=[];labelBackgroundColor=none;rounded=0;html=1;whiteSpace=wrap;" parent="D3t2vFxjSbuaH77wl_CM-41" vertex="1">
          <mxGeometry width="35" height="44" as="geometry" />
        </mxCell>
        <mxCell id="D3t2vFxjSbuaH77wl_CM-44" style="vsdxID=8;fillColor=none;gradientColor=none;strokeColor=none;spacingTop=-3;spacingBottom=-3;spacingLeft=-3;spacingRight=-3;points=[];labelBackgroundColor=none;rounded=0;html=1;whiteSpace=wrap;" parent="D3t2vFxjSbuaH77wl_CM-40" vertex="1">
          <mxGeometry x="1.0769230769230769" y="1.0476190476190474" width="32.30769230769231" height="41.9047619047619" as="geometry" />
        </mxCell>
        <mxCell id="D3t2vFxjSbuaH77wl_CM-45" style="vsdxID=9;fillColor=#2d5967;gradientColor=none;shape=stencil(lVTRboMwDPyavFpOTCB+7tr/qFY60FipKN3Y3y8ooSRBQ/CWOGfnfD5Z0OFRne+lUPjou/az/KkvfSXoTShV36qyq3t7EnQUdLi2XfnRtc/bxd3v5xE5nr7a77HC4PI0jikKf93V3U4O2dS3ABkDZQ5KbwVrCUUEfn92joT01YCUz/CRAqcUHJQHMSjpUT5kzMQCB3KhjAEnlA8xwwrVRAGJKxpoBOYIntZOOzMIJu4s5OzbYAO5iTsL+6eY2auvhawx2Rm/aWTbnbCGjN3FGijfZwXOALNYsZwXihUFZIliRi+8YMdFlHghX/tcKdCJEcOy/ierI8d/hwwnHwIXu8YVJPh5mR22zf5H2iEgrVZezCAYm0xSZtMGIJV2+JIhRG3TYYNn7GHeZ9e6adw6DN/T/WdDbnfS8Q8=);strokeColor=none;spacingTop=-3;spacingBottom=-3;spacingLeft=-3;spacingRight=-3;points=[];labelBackgroundColor=none;rounded=0;html=1;whiteSpace=wrap;" parent="D3t2vFxjSbuaH77wl_CM-44" vertex="1">
          <mxGeometry width="32.30769230769231" height="41.9047619047619" as="geometry" />
        </mxCell>
        <mxCell id="D3t2vFxjSbuaH77wl_CM-46" style="vsdxID=10;fillColor=#2d5967;gradientColor=none;shape=stencil(pVXLcsIwDPyaXDW25ETxmcJ/MCWUTGnCBGjh75vUMfhRHJre/FhptZZkZbQ47taHKkNxPHXte/VVb067jF4yxLrZVV196lcZLTNabNuueuvac7Mx+8N6QA6rj/Zz8HAxdiiB9GCF4mpOxM9uZcCv586gpbnUoGhESxcuLuhtr3hzbw0u5CPGrSoh5xSl8Pk4B5Y+pxOUPWGQyqd1hVKIekBNffS5T+96HslIQ4E+fxnLVngztPyF99T7unHywgKUhc9BR9oCAw0l/88gFY8WNqnz0FIk4PZyFlglsH2KmBPosDyUAAzKQ/5SHgjCevWbJFGaiSgnOnaqvXmq6KUCxb4qjlXFPVcoQO0Lc0DjSf7H34Xibpc5yOCTQSiLySe9ox6wI0MRCHc923QSUKDcDZJi1FPSXQMZP6hVWkLAzU/9dFHSp0oqMugX9xGyrfd7M4Hc+3Dk9EdmXNHyGw==);strokeColor=none;spacingTop=-3;spacingBottom=-3;spacingLeft=-3;spacingRight=-3;points=[];labelBackgroundColor=none;rounded=0;html=1;whiteSpace=wrap;" parent="D3t2vFxjSbuaH77wl_CM-44" vertex="1">
          <mxGeometry x="7.538461538461538" y="16.238095238095237" width="16.692307692307693" height="7.333333333333333" as="geometry" />
        </mxCell>
        <mxCell id="YzgmnVWLYQ7iU8UlS_Ah-53" value="&lt;div style=&quot;&quot;&gt;&lt;p style=&quot;text-align: center; margin: 0px; text-indent: 0px; direction: ltr;&quot;&gt;&lt;font style=&quot;color: rgb(0, 0, 0); direction: ltr; letter-spacing: 0px; line-height: 120%; opacity: 1;&quot;&gt;&lt;font style=&quot;font-size: 13px;&quot; face=&quot;Helvetica&quot;&gt;Session&lt;/font&gt;&lt;br&gt;&lt;/font&gt;&lt;/p&gt;&lt;/div&gt;" style="verticalAlign=middle;align=left;vsdxID=9;fillColor=none;gradientColor=none;shape=stencil(nZBLDoAgDERP0z3SIyjew0SURgSD+Lu9kMZoXLhwN9O+tukAlrNpJg1SzDH4QW/URgNYgZTkjA4UkwJUgGXng+6DX1zLfmoymdXo17xh5zmRJ6Q42BWCfc2oJfdAr+Yv+AP9Cb7OJ3H/2JG1HNGz/84klThPVCc=);strokeColor=none;spacingTop=-3;spacingBottom=-3;spacingLeft=-3;spacingRight=-3;points=[];labelBackgroundColor=none;rounded=0;html=1;whiteSpace=wrap;" parent="1" vertex="1">
          <mxGeometry x="470.5" y="310" width="49.5" height="20" as="geometry" />
        </mxCell>
        <mxCell id="YzgmnVWLYQ7iU8UlS_Ah-58" value="&lt;div style=&quot;&quot;&gt;&lt;p style=&quot;text-align: center; margin: 0px; text-indent: 0px; direction: ltr;&quot;&gt;&lt;font style=&quot;color: rgb(0, 0, 0); direction: ltr; letter-spacing: 0px; line-height: 120%; opacity: 1;&quot;&gt;&lt;font style=&quot;font-size: 13px;&quot; face=&quot;Helvetica&quot;&gt;Session&lt;/font&gt;&lt;br&gt;&lt;/font&gt;&lt;/p&gt;&lt;/div&gt;" style="verticalAlign=middle;align=left;vsdxID=9;fillColor=none;gradientColor=none;shape=stencil(nZBLDoAgDERP0z3SIyjew0SURgSD+Lu9kMZoXLhwN9O+tukAlrNpJg1SzDH4QW/URgNYgZTkjA4UkwJUgGXng+6DX1zLfmoymdXo17xh5zmRJ6Q42BWCfc2oJfdAr+Yv+AP9Cb7OJ3H/2JG1HNGz/84klThPVCc=);strokeColor=none;spacingTop=-3;spacingBottom=-3;spacingLeft=-3;spacingRight=-3;points=[];labelBackgroundColor=none;rounded=0;html=1;whiteSpace=wrap;" parent="1" vertex="1">
          <mxGeometry x="470.5" y="370" width="49" height="20" as="geometry" />
        </mxCell>
        <mxCell id="YzgmnVWLYQ7iU8UlS_Ah-67" value="&lt;div style=&quot;&quot;&gt;&lt;p style=&quot;text-align: center; margin: 0px; text-indent: 0px; direction: ltr;&quot;&gt;&lt;font style=&quot;color: rgb(0, 0, 0); direction: ltr; letter-spacing: 0px; line-height: 120%; opacity: 1;&quot;&gt;&lt;font style=&quot;font-size: 14px;&quot; face=&quot;Helvetica&quot;&gt;Bastion&lt;/font&gt;&lt;br&gt;&lt;/font&gt;&lt;/p&gt;&lt;/div&gt;" style="verticalAlign=middle;align=left;vsdxID=9;fillColor=none;gradientColor=none;shape=stencil(nZBLDoAgDERP0z3SIyjew0SURgSD+Lu9kMZoXLhwN9O+tukAlrNpJg1SzDH4QW/URgNYgZTkjA4UkwJUgGXng+6DX1zLfmoymdXo17xh5zmRJ6Q42BWCfc2oJfdAr+Yv+AP9Cb7OJ3H/2JG1HNGz/84klThPVCc=);strokeColor=none;spacingTop=-3;spacingBottom=-3;spacingLeft=-3;spacingRight=-3;points=[];labelBackgroundColor=none;rounded=0;html=1;whiteSpace=wrap;" parent="1" vertex="1">
          <mxGeometry x="467.75" y="214" width="49.5" height="20" as="geometry" />
        </mxCell>
        <mxCell id="MMdjCpipxH8R7vhumyOM-1" value="" style="shape=image;verticalLabelPosition=bottom;labelBackgroundColor=default;verticalAlign=top;aspect=fixed;imageAspect=0;editableCssRules=.*;image=data:image/svg+xml,PHN2ZyB4bWxuczp4bGluaz0iaHR0cDovL3d3dy53My5vcmcvMTk5OS94bGluayIgeG1sbnM9Imh0dHA6Ly93d3cudzMub3JnLzIwMDAvc3ZnIiB4bWw6c3BhY2U9InByZXNlcnZlIiBzdHlsZT0iZW5hYmxlLWJhY2tncm91bmQ6bmV3IDAgMCA0Mi4wOCAyMS45ODsiIHZpZXdCb3g9IjAgMCA0Mi4wNzIwMjUyOTkwNzIyNjYgMjEuOTc5OTk5NTQyMjM2MzI4IiB5PSIwcHgiIHg9IjBweCIgaWQ9IkxheWVyXzEiIHZlcnNpb249IjEuMSIgd2lkdGg9IjQyLjA3MjAyNTI5OTA3MjI2NiIgaGVpZ2h0PSIyMS45Nzk5OTk1NDIyMzYzMjgiPiYjeGE7PG1ldGFkYXRhPiYjeGE7JiN4YTsgICAmI3hhOyAgICAgICYjeGE7ICAgICAgICAgMjAyMi0xMC0yMVQxMzo0NToyOS0wNTowMCYjeGE7ICAgICAgICAgeG1wLmlpZDpkOTA4MmUzNi0xZjMyLTQ4YzktOWFjMS0yYzFhNmQyYTdiZmEmI3hhOyAgICAgICAgIHhtcC5kaWQ6ZGUxNGFkNjgtODgxMi00MzQ2LWI2OWQtNmM2OGUyM2U0OGNjJiN4YTsgICAgICAgICB4bXAuZGlkOmRlMTRhZDY4LTg4MTItNDM0Ni1iNjlkLTZjNjhlMjNlNDhjYyYjeGE7ICAgICAgICAgJiN4YTsgICAgICAgICAgICAmI3hhOyAgICAgICAgICAgICAgICYjeGE7ICAgICAgICAgICAgICAgICAgJiN4YTsgICAgICAgICAgICAgICAgICAgICBzYXZlZCYjeGE7ICAgICAgICAgICAgICAgICAgICAgeG1wLmlpZDpkZTE0YWQ2OC04ODEyLTQzNDYtYjY5ZC02YzY4ZTIzZTQ4Y2MmI3hhOyAgICAgICAgICAgICAgICAgICAgIDIwMjEtMDQtMjdUMTM6NDE6MjktMDU6MDAmI3hhOyAgICAgICAgICAgICAgICAgICAgIEFkb2JlIEJyaWRnZSAyMDIxIChNYWNpbnRvc2gpJiN4YTsgICAgICAgICAgICAgICAgICAgICAvbWV0YWRhdGEmI3hhOyAgICAgICAgICAgICAgICAgICYjeGE7ICAgICAgICAgICAgICAgJiN4YTsgICAgICAgICAgICAgICAmI3hhOyAgICAgICAgICAgICAgICAgICYjeGE7ICAgICAgICAgICAgICAgICAgICAgc2F2ZWQmI3hhOyAgICAgICAgICAgICAgICAgICAgIHhtcC5paWQ6ZDkwODJlMzYtMWYzMi00OGM5LTlhYzEtMmMxYTZkMmE3YmZhJiN4YTsgICAgICAgICAgICAgICAgICAgICAyMDIyLTEwLTIxVDEzOjQ1OjI5LTA1OjAwJiN4YTsgICAgICAgICAgICAgICAgICAgICBBZG9iZSBCcmlkZ2UgMjAyMSAoTWFjaW50b3NoKSYjeGE7ICAgICAgICAgICAgICAgICAgICAgL21ldGFkYXRhJiN4YTsgICAgICAgICAgICAgICAgICAmI3hhOyAgICAgICAgICAgICAgICYjeGE7ICAgICAgICAgICAgJiN4YTsgICAgICAgICAmI3hhOyAgICAgICAgIFRydWUmI3hhOyAgICAgICAgICYjeGE7ICAgICAgICAgICAgJiN4YTsgICAgICAgICAgICAgICBTdG9yYWdlJiN4YTsgICAgICAgICAgICAgICBEYXRhJiN4YTsgICAgICAgICAgICAgICBUcmFuc2ZlciYjeGE7ICAgICAgICAgICAgICAgaWNvbiYjeGE7ICAgICAgICAgICAgJiN4YTsgICAgICAgICAmI3hhOyAgICAgICAgICYjeGE7ICAgICAgICAgICAgJiN4YTsgICAgICAgICAgICAgICBPcmFjbGUgQWxsIFJpZ2h0cyBSZXNlcnZlZCYjeGE7ICAgICAgICAgICAgJiN4YTsgICAgICAgICAmI3hhOyAgICAgICAgICYjeGE7ICAgICAgICAgICAgJiN4YTsgICAgICAgICAgICAgICBTdG9yYWdlJiN4YTsgICAgICAgICAgICAgICBEYXRhJiN4YTsgICAgICAgICAgICAgICBUcmFuc2ZlciYjeGE7ICAgICAgICAgICAgICAgaWNvbiYjeGE7ICAgICAgICAgICAgJiN4YTsgICAgICAgICAmI3hhOyAgICAgICYjeGE7ICAgJiN4YTsmI3hhOyAgICAgICAgICAgICAgICAgICAgICAgICAgICAgICAgICAgICAgICAgICAgICAgICAgICAgICAgICAgICAgICAgICAgICAgICAgICAgICAgICAgICAgICAgICAgICAgICAgICAmI3hhOyAgICAgICAgICAgICAgICAgICAgICAgICAgICAgICAgICAgICAgICAgICAgICAgICAgICAgICAgICAgICAgICAgICAgICAgICAgICAgICAgICAgICAgICAgICAgICAgICAgICAmI3hhOyAgICAgICAgICAgICAgICAgICAgICAgICAgICAgICAgICAgICAgICAgICAgICAgICAgICAgICAgICAgICAgICAgICAgICAgICAgICAgICAgICAgICAgICAgICAgICAgICAgICAmI3hhOyAgICAgICAgICAgICAgICAgICAgICAgICAgICAgICAgICAgICAgICAgICAgICAgICAgICAgICAgICAgICAgICAgICAgICAgICAgICAgICAgICAgICAgICAgICAgICAgICAgICAmI3hhOyAgICAgICAgICAgICAgICAgICAgICAgICAgICAgICAgICAgICAgICAgICAgICAgICAgICAgICAgICAgICAgICAgICAgICAgICAgICAgICAgICAgICAgICAgICAgICAgICAgICAmI3hhOyAgICAgICAgICAgICAgICAgICAgICAgICAgICAgICAgICAgICAgICAgICAgICAgICAgICAgICAgICAgICAgICAgICAgICAgICAgICAgICAgICAgICAgICAgICAgICAgICAgICAmI3hhOyAgICAgICAgICAgICAgICAgICAgICAgICAgICAgICAgICAgICAgICAgICAgICAgICAgICAgICAgICAgICAgICAgICAgICAgICAgICAgICAgICAgICAgICAgICAgICAgICAgICAmI3hhOyAgICAgICAgICAgICAgICAgICAgICAgICAgICAgICAgICAgICAgICAgICAgICAgICAgICAgICAgICAgICAgICAgICAgICAgICAgICAgICAgICAgICAgICAgICAgICAgICAgICAmI3hhOzwvbWV0YWRhdGE+JiN4YTs8c3R5bGUgdHlwZT0idGV4dC9jc3MiPiYjeGE7CS5zdDB7ZmlsbDojRkZGRkZGO30mI3hhOwkuc3Qxe2ZpbGw6IzJDNTk2Nzt9JiN4YTs8L3N0eWxlPiYjeGE7PGc+JiN4YTsJPGc+JiN4YTsJCTxwYXRoIGQ9Ik0wLjU0LDIxLjQ4bDAuMTEtMS40NmMwLjI2LTMuNDQsMi4yNC02LjQ2LDUuMy04LjA3QzYuNjEsMTEuNjEsNy4wNiwxMSw3LjIsMTAuMjgmIzEwOyYjOTsmIzk7JiM5O2MwLjQ4LTIuNDQsMi4xMi00LjQ5LDQuNC01LjQ5YzAuOTYtMC40MiwyLjAxLTAuNjQsMy4wNi0wLjY0YzAuMjQsMCwwLjQ3LDAuMDEsMC43MSwwLjAzYzAuMDgsMC4wMSwwLjE2LDAuMDEsMC4yNCwwLjAxJiMxMDsmIzk7JiM5OyYjOTtjMC42NSwwLDEuMjUtMC4yNiwxLjY4LTAuNzJjMS43Ni0xLjg5LDQuMjQtMi45OCw2LjgyLTIuOThjMy41NSwwLDYuNzQsMS45Nyw4LjMzLDUuMTVjMC4zMywwLjY3LDAuOTQsMS4xNCwxLjY4LDEuMyYjMTA7JiM5OyYjOTsmIzk7YzEuMDcsMC4yNCwyLjA4LDAuNjUsMy4wMiwxLjI0YzQuMjIsMi42Niw1LjY4LDguMTgsMy4zMSwxMi41N2wtMC4zOCwwLjcxSDAuNTR6IiBjbGFzcz0ic3QwIi8+JiN4YTsJCTxwYXRoIGQ9Ik0yNC4xMSwxYzMuMzYsMCw2LjM4LDEuODcsNy44OCw0Ljg4YzAuNCwwLjgsMS4xNCwxLjM3LDIuMDIsMS41N2MxLjAxLDAuMjIsMS45NywwLjYyLDIuODYsMS4xOCYjMTA7JiM5OyYjOTsmIzk7YzQsMi41Miw1LjM4LDcuNzUsMy4xNCwxMS45MWwtMC4yNCwwLjQ1SDEuMDhsMC4wNy0wLjkyYzAuMjQtMy4yNywyLjEyLTYuMTQsNS4wMy03LjY2YzAuNzktMC40MiwxLjM1LTEuMTUsMS41Mi0yLjAxJiMxMDsmIzk7JiM5OyYjOTtDOC4xNCw4LjEsOS42OCw2LjE5LDExLjgsNS4yNWMwLjktMC40LDEuODgtMC42LDIuODYtMC42YzAuMjIsMCwwLjQ0LDAuMDEsMC42NiwwLjAzYzAuMSwwLjAxLDAuMTksMC4wMSwwLjI5LDAuMDEmIzEwOyYjOTsmIzk7JiM5O2MwLjc5LDAsMS41Mi0wLjMxLDIuMDQtMC44OEMxOS4zMSwyLjAzLDIxLjY3LDEsMjQuMTEsMSBNMjQuMTEsMGMtMi43MiwwLTUuMzQsMS4xNC03LjE5LDMuMTRjLTAuMzQsMC4zNi0wLjgsMC41Ni0xLjMxLDAuNTYmIzEwOyYjOTsmIzk7JiM5O2MtMC4wNiwwLTAuMTMsMC0wLjE5LTAuMDFjLTAuMjUtMC4wMi0wLjUxLTAuMDQtMC43Ni0wLjA0Yy0xLjExLDAtMi4yNCwwLjI0LTMuMjYsMC42OEM4Ljk4LDUuNCw3LjIzLDcuNTksNi43MSwxMC4xOSYjMTA7JiM5OyYjOTsmIzk7Yy0wLjExLDAuNTYtMC40OCwxLjA1LTEsMS4zMmMtMy4yMiwxLjY5LTUuMyw0Ljg2LTUuNTcsOC40OGwtMC4wNywwLjkyTDAsMjEuOThoMS4wOGgzOC42OGgwLjZsMC4yOC0wLjUzbDAuMjQtMC40NSYjMTA7JiM5OyYjOTsmIzk7YzIuNDktNC42MiwwLjk2LTEwLjQzLTMuNDgtMTMuMjNjLTAuOTgtMC42Mi0yLjA1LTEuMDYtMy4xNy0xLjMxYy0wLjU5LTAuMTMtMS4wOC0wLjUxLTEuMzQtMS4wNEMzMS4yMSwyLjA4LDI3Ljg1LDAsMjQuMTEsMCYjMTA7JiM5OyYjOTsmIzk7TDI0LjExLDB6IiBjbGFzcz0ic3QwIi8+JiN4YTsJPC9nPiYjeGE7CTxnPiYjeGE7CQk8Zz4mI3hhOwkJCTxwYXRoIGQ9Ik0zNi44Nyw4LjYyYy0wLjg4LTAuNTYtMS44NC0wLjk1LTIuODYtMS4xOGMtMC44OC0wLjItMS42Mi0wLjc3LTIuMDItMS41N0MzMC40OSwyLjg3LDI3LjQ3LDEsMjQuMTEsMSYjMTA7JiM5OyYjOTsmIzk7JiM5O2MtMi40NCwwLTQuOCwxLjAzLTYuNDYsMi44MmMtMC41OSwwLjY0LTEuNDQsMC45NS0yLjMzLDAuODdjLTEuMi0wLjExLTIuNDEsMC4wOC0zLjUyLDAuNTdDOS42OCw2LjE5LDguMTQsOC4xLDcuNywxMC4zOCYjMTA7JiM5OyYjOTsmIzk7JiM5O2MtMC4xNywwLjg2LTAuNzIsMS42LTEuNTIsMi4wMWMtMi45MSwxLjUzLTQuNzksNC4zOS01LjAzLDcuNjZsLTAuMDcsMC45Mmg1LjQxSDYuN2gxMWMtMC42Ni0wLjQ3LTEuMjQtMS4wNS0xLjcxLTEuNzJINi43SDYuNDkmIzEwOyYjOTsmIzk7JiM5OyYjOTtIMi45OGMwLjQ1LTIuMjgsMS44OS00LjI0LDQtNS4zNWMxLjI2LTAuNjYsMi4xMy0xLjgzLDIuNC0zLjJjMC4zNC0xLjczLDEuNS0zLjE4LDMuMTEtMy44OWMwLjg0LTAuMzcsMS43Ni0wLjUyLDIuNjYtMC40MyYjMTA7JiM5OyYjOTsmIzk7JiM5O2MxLjQzLDAuMTQsMi44LTAuMzgsMy43Ni0xLjQxYzEuMzQtMS40NCwzLjIzLTIuMjcsNS4yLTIuMjdjMC43NiwwLDEuNDksMC4xMiwyLjE4LDAuMzR2Ni41M2wtMS4yMy0xLjJsLTEuMiwxLjIzbDMuMjksMy4yMyYjMTA7JiM5OyYjOTsmIzk7JiM5O2wzLjI5LTMuMjNsLTEuMi0xLjIzTDI4LjAxLDkuNlYzLjg5YzEuMDIsMC42NywxLjg3LDEuNjEsMi40NCwyLjc2YzAuNjMsMS4yNywxLjc5LDIuMTcsMy4xOSwyLjQ4YzAuODIsMC4xOCwxLjYsMC41LDIuMzEsMC45NSYjMTA7JiM5OyYjOTsmIzk7JiM5O2MzLjEsMS45NSw0LjI1LDUuOSwyLjc2LDkuMTlIMjEuNzRjLTIuMjIsMC00LjAzLTEuODMtNC4wMy00LjA4SDE3Ljd2LTQuMzVsMi43OSwyLjgxbDEuMjItMS4yMWwtNC44NS00LjY4bC00Ljk0LDQuNjYmIzEwOyYjOTsmIzk7JiM5OyYjOTtsMS4xOCwxLjI1bDIuODktMi43MnY0LjI0SDE2YzAsMy4yLDIuNTgsNS44LDUuNzUsNS44aDE4LjAxTDQwLDIwLjUzQzQyLjI1LDE2LjM3LDQwLjg3LDExLjE0LDM2Ljg3LDguNjJ6IE0yNy4xNSwxMC40NCYjMTA7JiM5OyYjOTsmIzk7JiM5O0wyNy4xNSwxMC40NEwyNy4xNSwxMC40NEwyNy4xNSwxMC40NHoiIGNsYXNzPSJzdDEiLz4mI3hhOwkJPC9nPiYjeGE7CTwvZz4mI3hhOzwvZz4mI3hhOzwvc3ZnPg==;" vertex="1" parent="1">
          <mxGeometry x="459" y="272.28999999999996" width="72" height="37.71" as="geometry" />
        </mxCell>
        <mxCell id="MMdjCpipxH8R7vhumyOM-2" value="" style="shape=image;verticalLabelPosition=bottom;labelBackgroundColor=default;verticalAlign=top;aspect=fixed;imageAspect=0;editableCssRules=.*;image=data:image/svg+xml,PHN2ZyB4bWxuczp4bGluaz0iaHR0cDovL3d3dy53My5vcmcvMTk5OS94bGluayIgeG1sbnM9Imh0dHA6Ly93d3cudzMub3JnLzIwMDAvc3ZnIiB4bWw6c3BhY2U9InByZXNlcnZlIiBzdHlsZT0iZW5hYmxlLWJhY2tncm91bmQ6bmV3IDAgMCA0Mi4wOCAyMS45ODsiIHZpZXdCb3g9IjAgMCA0Mi4wNzIwMjUyOTkwNzIyNjYgMjEuOTc5OTk5NTQyMjM2MzI4IiB5PSIwcHgiIHg9IjBweCIgaWQ9IkxheWVyXzEiIHZlcnNpb249IjEuMSIgd2lkdGg9IjQyLjA3MjAyNTI5OTA3MjI2NiIgaGVpZ2h0PSIyMS45Nzk5OTk1NDIyMzYzMjgiPiYjeGE7PG1ldGFkYXRhPiYjeGE7JiN4YTsgICAmI3hhOyAgICAgICYjeGE7ICAgICAgICAgMjAyMi0xMC0yMVQxMzo0NToyOS0wNTowMCYjeGE7ICAgICAgICAgeG1wLmlpZDpkOTA4MmUzNi0xZjMyLTQ4YzktOWFjMS0yYzFhNmQyYTdiZmEmI3hhOyAgICAgICAgIHhtcC5kaWQ6ZGUxNGFkNjgtODgxMi00MzQ2LWI2OWQtNmM2OGUyM2U0OGNjJiN4YTsgICAgICAgICB4bXAuZGlkOmRlMTRhZDY4LTg4MTItNDM0Ni1iNjlkLTZjNjhlMjNlNDhjYyYjeGE7ICAgICAgICAgJiN4YTsgICAgICAgICAgICAmI3hhOyAgICAgICAgICAgICAgICYjeGE7ICAgICAgICAgICAgICAgICAgJiN4YTsgICAgICAgICAgICAgICAgICAgICBzYXZlZCYjeGE7ICAgICAgICAgICAgICAgICAgICAgeG1wLmlpZDpkZTE0YWQ2OC04ODEyLTQzNDYtYjY5ZC02YzY4ZTIzZTQ4Y2MmI3hhOyAgICAgICAgICAgICAgICAgICAgIDIwMjEtMDQtMjdUMTM6NDE6MjktMDU6MDAmI3hhOyAgICAgICAgICAgICAgICAgICAgIEFkb2JlIEJyaWRnZSAyMDIxIChNYWNpbnRvc2gpJiN4YTsgICAgICAgICAgICAgICAgICAgICAvbWV0YWRhdGEmI3hhOyAgICAgICAgICAgICAgICAgICYjeGE7ICAgICAgICAgICAgICAgJiN4YTsgICAgICAgICAgICAgICAmI3hhOyAgICAgICAgICAgICAgICAgICYjeGE7ICAgICAgICAgICAgICAgICAgICAgc2F2ZWQmI3hhOyAgICAgICAgICAgICAgICAgICAgIHhtcC5paWQ6ZDkwODJlMzYtMWYzMi00OGM5LTlhYzEtMmMxYTZkMmE3YmZhJiN4YTsgICAgICAgICAgICAgICAgICAgICAyMDIyLTEwLTIxVDEzOjQ1OjI5LTA1OjAwJiN4YTsgICAgICAgICAgICAgICAgICAgICBBZG9iZSBCcmlkZ2UgMjAyMSAoTWFjaW50b3NoKSYjeGE7ICAgICAgICAgICAgICAgICAgICAgL21ldGFkYXRhJiN4YTsgICAgICAgICAgICAgICAgICAmI3hhOyAgICAgICAgICAgICAgICYjeGE7ICAgICAgICAgICAgJiN4YTsgICAgICAgICAmI3hhOyAgICAgICAgIFRydWUmI3hhOyAgICAgICAgICYjeGE7ICAgICAgICAgICAgJiN4YTsgICAgICAgICAgICAgICBTdG9yYWdlJiN4YTsgICAgICAgICAgICAgICBEYXRhJiN4YTsgICAgICAgICAgICAgICBUcmFuc2ZlciYjeGE7ICAgICAgICAgICAgICAgaWNvbiYjeGE7ICAgICAgICAgICAgJiN4YTsgICAgICAgICAmI3hhOyAgICAgICAgICYjeGE7ICAgICAgICAgICAgJiN4YTsgICAgICAgICAgICAgICBPcmFjbGUgQWxsIFJpZ2h0cyBSZXNlcnZlZCYjeGE7ICAgICAgICAgICAgJiN4YTsgICAgICAgICAmI3hhOyAgICAgICAgICYjeGE7ICAgICAgICAgICAgJiN4YTsgICAgICAgICAgICAgICBTdG9yYWdlJiN4YTsgICAgICAgICAgICAgICBEYXRhJiN4YTsgICAgICAgICAgICAgICBUcmFuc2ZlciYjeGE7ICAgICAgICAgICAgICAgaWNvbiYjeGE7ICAgICAgICAgICAgJiN4YTsgICAgICAgICAmI3hhOyAgICAgICYjeGE7ICAgJiN4YTsmI3hhOyAgICAgICAgICAgICAgICAgICAgICAgICAgICAgICAgICAgICAgICAgICAgICAgICAgICAgICAgICAgICAgICAgICAgICAgICAgICAgICAgICAgICAgICAgICAgICAgICAgICAmI3hhOyAgICAgICAgICAgICAgICAgICAgICAgICAgICAgICAgICAgICAgICAgICAgICAgICAgICAgICAgICAgICAgICAgICAgICAgICAgICAgICAgICAgICAgICAgICAgICAgICAgICAmI3hhOyAgICAgICAgICAgICAgICAgICAgICAgICAgICAgICAgICAgICAgICAgICAgICAgICAgICAgICAgICAgICAgICAgICAgICAgICAgICAgICAgICAgICAgICAgICAgICAgICAgICAmI3hhOyAgICAgICAgICAgICAgICAgICAgICAgICAgICAgICAgICAgICAgICAgICAgICAgICAgICAgICAgICAgICAgICAgICAgICAgICAgICAgICAgICAgICAgICAgICAgICAgICAgICAmI3hhOyAgICAgICAgICAgICAgICAgICAgICAgICAgICAgICAgICAgICAgICAgICAgICAgICAgICAgICAgICAgICAgICAgICAgICAgICAgICAgICAgICAgICAgICAgICAgICAgICAgICAmI3hhOyAgICAgICAgICAgICAgICAgICAgICAgICAgICAgICAgICAgICAgICAgICAgICAgICAgICAgICAgICAgICAgICAgICAgICAgICAgICAgICAgICAgICAgICAgICAgICAgICAgICAmI3hhOyAgICAgICAgICAgICAgICAgICAgICAgICAgICAgICAgICAgICAgICAgICAgICAgICAgICAgICAgICAgICAgICAgICAgICAgICAgICAgICAgICAgICAgICAgICAgICAgICAgICAmI3hhOyAgICAgICAgICAgICAgICAgICAgICAgICAgICAgICAgICAgICAgICAgICAgICAgICAgICAgICAgICAgICAgICAgICAgICAgICAgICAgICAgICAgICAgICAgICAgICAgICAgICAmI3hhOzwvbWV0YWRhdGE+JiN4YTs8c3R5bGUgdHlwZT0idGV4dC9jc3MiPiYjeGE7CS5zdDB7ZmlsbDojRkZGRkZGO30mI3hhOwkuc3Qxe2ZpbGw6IzJDNTk2Nzt9JiN4YTs8L3N0eWxlPiYjeGE7PGc+JiN4YTsJPGc+JiN4YTsJCTxwYXRoIGQ9Ik0wLjU0LDIxLjQ4bDAuMTEtMS40NmMwLjI2LTMuNDQsMi4yNC02LjQ2LDUuMy04LjA3QzYuNjEsMTEuNjEsNy4wNiwxMSw3LjIsMTAuMjgmIzEwOyYjOTsmIzk7JiM5O2MwLjQ4LTIuNDQsMi4xMi00LjQ5LDQuNC01LjQ5YzAuOTYtMC40MiwyLjAxLTAuNjQsMy4wNi0wLjY0YzAuMjQsMCwwLjQ3LDAuMDEsMC43MSwwLjAzYzAuMDgsMC4wMSwwLjE2LDAuMDEsMC4yNCwwLjAxJiMxMDsmIzk7JiM5OyYjOTtjMC42NSwwLDEuMjUtMC4yNiwxLjY4LTAuNzJjMS43Ni0xLjg5LDQuMjQtMi45OCw2LjgyLTIuOThjMy41NSwwLDYuNzQsMS45Nyw4LjMzLDUuMTVjMC4zMywwLjY3LDAuOTQsMS4xNCwxLjY4LDEuMyYjMTA7JiM5OyYjOTsmIzk7YzEuMDcsMC4yNCwyLjA4LDAuNjUsMy4wMiwxLjI0YzQuMjIsMi42Niw1LjY4LDguMTgsMy4zMSwxMi41N2wtMC4zOCwwLjcxSDAuNTR6IiBjbGFzcz0ic3QwIi8+JiN4YTsJCTxwYXRoIGQ9Ik0yNC4xMSwxYzMuMzYsMCw2LjM4LDEuODcsNy44OCw0Ljg4YzAuNCwwLjgsMS4xNCwxLjM3LDIuMDIsMS41N2MxLjAxLDAuMjIsMS45NywwLjYyLDIuODYsMS4xOCYjMTA7JiM5OyYjOTsmIzk7YzQsMi41Miw1LjM4LDcuNzUsMy4xNCwxMS45MWwtMC4yNCwwLjQ1SDEuMDhsMC4wNy0wLjkyYzAuMjQtMy4yNywyLjEyLTYuMTQsNS4wMy03LjY2YzAuNzktMC40MiwxLjM1LTEuMTUsMS41Mi0yLjAxJiMxMDsmIzk7JiM5OyYjOTtDOC4xNCw4LjEsOS42OCw2LjE5LDExLjgsNS4yNWMwLjktMC40LDEuODgtMC42LDIuODYtMC42YzAuMjIsMCwwLjQ0LDAuMDEsMC42NiwwLjAzYzAuMSwwLjAxLDAuMTksMC4wMSwwLjI5LDAuMDEmIzEwOyYjOTsmIzk7JiM5O2MwLjc5LDAsMS41Mi0wLjMxLDIuMDQtMC44OEMxOS4zMSwyLjAzLDIxLjY3LDEsMjQuMTEsMSBNMjQuMTEsMGMtMi43MiwwLTUuMzQsMS4xNC03LjE5LDMuMTRjLTAuMzQsMC4zNi0wLjgsMC41Ni0xLjMxLDAuNTYmIzEwOyYjOTsmIzk7JiM5O2MtMC4wNiwwLTAuMTMsMC0wLjE5LTAuMDFjLTAuMjUtMC4wMi0wLjUxLTAuMDQtMC43Ni0wLjA0Yy0xLjExLDAtMi4yNCwwLjI0LTMuMjYsMC42OEM4Ljk4LDUuNCw3LjIzLDcuNTksNi43MSwxMC4xOSYjMTA7JiM5OyYjOTsmIzk7Yy0wLjExLDAuNTYtMC40OCwxLjA1LTEsMS4zMmMtMy4yMiwxLjY5LTUuMyw0Ljg2LTUuNTcsOC40OGwtMC4wNywwLjkyTDAsMjEuOThoMS4wOGgzOC42OGgwLjZsMC4yOC0wLjUzbDAuMjQtMC40NSYjMTA7JiM5OyYjOTsmIzk7YzIuNDktNC42MiwwLjk2LTEwLjQzLTMuNDgtMTMuMjNjLTAuOTgtMC42Mi0yLjA1LTEuMDYtMy4xNy0xLjMxYy0wLjU5LTAuMTMtMS4wOC0wLjUxLTEuMzQtMS4wNEMzMS4yMSwyLjA4LDI3Ljg1LDAsMjQuMTEsMCYjMTA7JiM5OyYjOTsmIzk7TDI0LjExLDB6IiBjbGFzcz0ic3QwIi8+JiN4YTsJPC9nPiYjeGE7CTxnPiYjeGE7CQk8Zz4mI3hhOwkJCTxwYXRoIGQ9Ik0zNi44Nyw4LjYyYy0wLjg4LTAuNTYtMS44NC0wLjk1LTIuODYtMS4xOGMtMC44OC0wLjItMS42Mi0wLjc3LTIuMDItMS41N0MzMC40OSwyLjg3LDI3LjQ3LDEsMjQuMTEsMSYjMTA7JiM5OyYjOTsmIzk7JiM5O2MtMi40NCwwLTQuOCwxLjAzLTYuNDYsMi44MmMtMC41OSwwLjY0LTEuNDQsMC45NS0yLjMzLDAuODdjLTEuMi0wLjExLTIuNDEsMC4wOC0zLjUyLDAuNTdDOS42OCw2LjE5LDguMTQsOC4xLDcuNywxMC4zOCYjMTA7JiM5OyYjOTsmIzk7JiM5O2MtMC4xNywwLjg2LTAuNzIsMS42LTEuNTIsMi4wMWMtMi45MSwxLjUzLTQuNzksNC4zOS01LjAzLDcuNjZsLTAuMDcsMC45Mmg1LjQxSDYuN2gxMWMtMC42Ni0wLjQ3LTEuMjQtMS4wNS0xLjcxLTEuNzJINi43SDYuNDkmIzEwOyYjOTsmIzk7JiM5OyYjOTtIMi45OGMwLjQ1LTIuMjgsMS44OS00LjI0LDQtNS4zNWMxLjI2LTAuNjYsMi4xMy0xLjgzLDIuNC0zLjJjMC4zNC0xLjczLDEuNS0zLjE4LDMuMTEtMy44OWMwLjg0LTAuMzcsMS43Ni0wLjUyLDIuNjYtMC40MyYjMTA7JiM5OyYjOTsmIzk7JiM5O2MxLjQzLDAuMTQsMi44LTAuMzgsMy43Ni0xLjQxYzEuMzQtMS40NCwzLjIzLTIuMjcsNS4yLTIuMjdjMC43NiwwLDEuNDksMC4xMiwyLjE4LDAuMzR2Ni41M2wtMS4yMy0xLjJsLTEuMiwxLjIzbDMuMjksMy4yMyYjMTA7JiM5OyYjOTsmIzk7JiM5O2wzLjI5LTMuMjNsLTEuMi0xLjIzTDI4LjAxLDkuNlYzLjg5YzEuMDIsMC42NywxLjg3LDEuNjEsMi40NCwyLjc2YzAuNjMsMS4yNywxLjc5LDIuMTcsMy4xOSwyLjQ4YzAuODIsMC4xOCwxLjYsMC41LDIuMzEsMC45NSYjMTA7JiM5OyYjOTsmIzk7JiM5O2MzLjEsMS45NSw0LjI1LDUuOSwyLjc2LDkuMTlIMjEuNzRjLTIuMjIsMC00LjAzLTEuODMtNC4wMy00LjA4SDE3Ljd2LTQuMzVsMi43OSwyLjgxbDEuMjItMS4yMWwtNC44NS00LjY4bC00Ljk0LDQuNjYmIzEwOyYjOTsmIzk7JiM5OyYjOTtsMS4xOCwxLjI1bDIuODktMi43MnY0LjI0SDE2YzAsMy4yLDIuNTgsNS44LDUuNzUsNS44aDE4LjAxTDQwLDIwLjUzQzQyLjI1LDE2LjM3LDQwLjg3LDExLjE0LDM2Ljg3LDguNjJ6IE0yNy4xNSwxMC40NCYjMTA7JiM5OyYjOTsmIzk7JiM5O0wyNy4xNSwxMC40NEwyNy4xNSwxMC40NEwyNy4xNSwxMC40NHoiIGNsYXNzPSJzdDEiLz4mI3hhOwkJPC9nPiYjeGE7CTwvZz4mI3hhOzwvZz4mI3hhOzwvc3ZnPg==;" vertex="1" parent="1">
          <mxGeometry x="459" y="331.14" width="72" height="37.71" as="geometry" />
        </mxCell>
        <mxCell id="MMdjCpipxH8R7vhumyOM-3" value="&lt;b style=&quot;color: rgb(63, 58, 54); font-family: Helvetica; text-align: left; text-wrap-mode: nowrap; font-size: 14px;&quot;&gt;Github Actions&lt;/b&gt;" style="rounded=1;whiteSpace=wrap;html=1;labelBackgroundColor=none;gradientColor=none;fontFamily=Oracle Sans;fontSize=11;align=center;arcSize=5;verticalAlign=top;spacingRight=5;fontColor=#312D2A;fillColor=#F5F4F2;strokeColor=#9E9892;" vertex="1" parent="1">
          <mxGeometry x="80" y="160" width="240" height="260" as="geometry" />
        </mxCell>
        <mxCell id="MMdjCpipxH8R7vhumyOM-5" value="" style="shape=image;verticalLabelPosition=bottom;labelBackgroundColor=default;verticalAlign=top;aspect=fixed;imageAspect=0;editableCssRules=.*;image=data:image/svg+xml,PHN2ZyB4bWxucz0iaHR0cDovL3d3dy53My5vcmcvMjAwMC9zdmciIHZpZXdCb3g9IjAgMCAxMjggMTI4IiB3aWR0aD0iMTI4IiBoZWlnaHQ9IjEyOCI+PHBhdGggZD0iTTI2LjY2NiAwQzExLjk3IDAgMCAxMS45NyAwIDI2LjY2NmMwIDEyLjg3IDkuMTgxIDIzLjY1MSAyMS4zMzQgMjYuMTN2MzcuODdjMCAxMS43NyA5LjY4IDIxLjMzNCAyMS4zMzIgMjEuMzM0aC4xOTVjMS4zMDIgOS4wMjMgOS4xIDE2IDE4LjQ3MyAxNkM3MS42MTIgMTI4IDgwIDExOS42MTIgODAgMTA5LjMzNHMtOC4zODgtMTguNjY4LTE4LjY2Ni0xOC42NjhjLTkuMzcyIDAtMTcuMTcgNi45NzctMTguNDczIDE2aC0uMTk1Yy04LjczNyAwLTE2LTcuMTUyLTE2LTE2VjYzLjc3OWExOC41MTQgMTguNTE0IDAgMCAwIDEzLjI0IDUuNTU1aDIuOTU1YzEuMzAzIDkuMDIzIDkuMSAxNiAxOC40NzMgMTYgOS4zNzIgMCAxNy4xNjktNi45NzcgMTguNDctMTZoMTEuMDU3YzEuMzAzIDkuMDIzIDkuMSAxNiAxOC40NzMgMTYgMTAuMjc4IDAgMTguNjY2LTguMzkgMTguNjY2LTE4LjY2OEMxMjggNTYuMzg4IDExOS42MTIgNDggMTA5LjMzNCA0OGMtOS4zNzMgMC0xNy4xNzEgNi45NzctMTguNDczIDE2SDc5LjgwNWMtMS4zMDEtOS4wMjMtOS4wOTgtMTYtMTguNDcxLTE2cy0xNy4xNzEgNi45NzctMTguNDczIDE2aC0yLjk1NWMtNi40MzMgMC0xMS43OTMtNC41ODktMTIuOTg4LTEwLjY3MiAxNC41OC0uMTM2IDI2LjQxNi0xMi4wNSAyNi40MTYtMjYuNjYyQzUzLjMzNCAxMS45NyA0MS4zNjIgMCAyNi42NjYgMHptMCA1LjMzNEEyMS4yOTIgMjEuMjkyIDAgMCAxIDQ4IDI2LjY2NiAyMS4yOTQgMjEuMjk0IDAgMCAxIDI2LjY2NiA0OCAyMS4yOTIgMjEuMjkyIDAgMCAxIDUuMzM0IDI2LjY2NiAyMS4yOSAyMS4yOSAwIDAgMSAyNi42NjYgNS4zMzR6bS01LjIxNSA3LjU0MUMxOC42NyAxMi44ODkgMTYgMTUuMTIzIDE2IDE4LjE2NnYxNy4wNDNjMCA0LjA0MyA0LjcwOSA2LjY2MyA4LjE0NSA0LjUzM2wxMy42MzQtOC40NTVjMy4yNTctMi4wMiAzLjI3NC03LjAwMi4wMzItOS4wNDVsLTEzLjYzNS04LjU5YTUuMDI0IDUuMDI0IDAgMCAwLTIuNzI1LS43Nzd6bS0uMTE3IDUuMjkxIDEzLjYzNSA4LjU4OC0xMy42MzUgOC40NTVWMTguMTY2em00MCAzNS4xNjhhMTMuMjkgMTMuMjkgMCAwIDEgMTMuMzMyIDEzLjMzMkExMy4yOTMgMTMuMjkzIDAgMCAxIDYxLjMzNCA4MCAxMy4yOTQgMTMuMjk0IDAgMCAxIDQ4IDY2LjY2NmExMy4yOTMgMTMuMjkzIDAgMCAxIDEzLjMzNC0xMy4zMzJ6bTQ4IDBhMTMuMjkgMTMuMjkgMCAwIDEgMTMuMzMyIDEzLjMzMkExMy4yOTMgMTMuMjkzIDAgMCAxIDEwOS4zMzQgODAgMTMuMjk0IDEzLjI5NCAwIDAgMSA5NiA2Ni42NjZhMTMuMjkzIDEzLjI5MyAwIDAgMSAxMy4zMzQtMTMuMzMyem0tNDIuNTY4IDYuOTUxYTIuNjY3IDIuNjY3IDAgMCAwLTEuODg3Ljc4bC02LjMgNi4yOTQtMi4wOTMtMi4wODRhMi42NjcgMi42NjcgMCAwIDAtMy43NzEuMDA2IDIuNjY3IDIuNjY3IDAgMCAwIC4wMDggMy43NzJsMy45NzQgMy45NmEyLjY2NyAyLjY2NyAwIDAgMCAzLjc2Ni0uMDAxbDguMTg1LTguMTc0YTIuNjY3IDIuNjY3IDAgMCAwIC4wMDItMy43NzIgMi42NjcgMi42NjcgMCAwIDAtMS44ODQtLjc4em00OCAwYTIuNjY3IDIuNjY3IDAgMCAwLTEuODg3Ljc4bC02LjMgNi4yOTQtMi4wOTMtMi4wODRhMi42NjcgMi42NjcgMCAwIDAtMy43NzEuMDA2IDIuNjY3IDIuNjY3IDAgMCAwIC4wMDggMy43NzJsMy45NzQgMy45NmEyLjY2NyAyLjY2NyAwIDAgMCAzLjc2Ni0uMDAxbDguMTg1LTguMTc0YTIuNjY3IDIuNjY3IDAgMCAwIC4wMDItMy43NzIgMi42NjcgMi42NjcgMCAwIDAtMS44ODQtLjc4ek02MS4zMzQgOTZhMTMuMjkzIDEzLjI5MyAwIDAgMSAxMy4zMzIgMTMuMzM0IDEzLjI5IDEzLjI5IDAgMCAxLTEzLjMzMiAxMy4zMzJBMTMuMjkzIDEzLjI5MyAwIDAgMSA0OCAxMDkuMzM0IDEzLjI5NCAxMy4yOTQgMCAwIDEgNjEuMzM0IDk2ek01NiAxMDUuMzM0Yy0yLjE5MyAwLTQgMS44MDctNCA0IDAgMi4xOTUgMS44MDggNCA0IDRzNC0xLjgwNSA0LTRjMC0yLjE5My0xLjgwNy00LTQtNHptMTAuNjY2IDBjLTIuMTkzIDAtNCAxLjgwNy00IDQgMCAyLjE5NSAxLjgwOCA0IDQgNHM0LTEuODA1IDQtNGMwLTIuMTkzLTEuODA3LTQtNC00ek01NiAxMDhjLjc1IDAgMS4zMzQuNTg1IDEuMzM0IDEuMzM0IDAgLjc1My0uNTgzIDEuMzMyLTEuMzM0IDEuMzMyLS43NSAwLTEuMzM0LS41OC0xLjMzNC0xLjMzMiAwLS43NS41ODUtMS4zMzQgMS4zMzQtMS4zMzR6bTEwLjY2NiAwYy43NSAwIDEuMzM0LjU4NSAxLjMzNCAxLjMzNCAwIC43NTMtLjU4MyAxLjMzMi0xLjMzNCAxLjMzMi0uNzUgMC0xLjMzMi0uNTgtMS4zMzItMS4zMzIgMC0uNzUuNTgzLTEuMzM0IDEuMzMyLTEuMzM0eiIgZmlsbD0iIzIwODhmZiIvPjxwYXRoIGQ9Ik0xMDkuMzM0IDkwLjY2NmMtOS4zODMgMC0xNy4xODggNi45OTMtMTguNDc3IDE2LjAzMWEyLjY2NyAyLjY2NyAwIDAgMC0uMjY1LS4wMTFsLTIuNy4wOWEyLjY2NyAyLjY2NyAwIDAgMC0yLjU3OCAyLjc1MSAyLjY2NyAyLjY2NyAwIDAgMCAyLjc1MiAyLjU3OGwyLjctLjA4N2EyLjY2NyAyLjY2NyAwIDAgMCAuMDk3LS4wMDZDOTIuMTcgMTIxLjAyOSA5OS45NjUgMTI4IDEwOS4zMzQgMTI4YzEwLjI3OCAwIDE4LjY2Ni04LjM4OCAxOC42NjYtMTguNjY2cy04LjM4OC0xOC42NjgtMTguNjY2LTE4LjY2OHptMCA1LjMzNGExMy4yOTMgMTMuMjkzIDAgMCAxIDEzLjMzMiAxMy4zMzQgMTMuMjkgMTMuMjkgMCAwIDEtMTMuMzMyIDEzLjMzMkExMy4yOTMgMTMuMjkzIDAgMCAxIDk2IDEwOS4zMzQgMTMuMjk0IDEzLjI5NCAwIDAgMSAxMDkuMzM0IDk2eiIgZmlsbD0iIzc5YjhmZiIvPjwvc3ZnPg==;imageBackground=none;imageBorder=none;" vertex="1" parent="1">
          <mxGeometry x="100" y="216.14" width="150" height="150" as="geometry" />
        </mxCell>
        <mxCell id="MMdjCpipxH8R7vhumyOM-6" value="" style="group" vertex="1" connectable="0" parent="1">
          <mxGeometry x="249" y="279.76" width="210" height="37.82" as="geometry" />
        </mxCell>
        <mxCell id="MMdjCpipxH8R7vhumyOM-7" value="" style="endArrow=open;html=1;startArrow=open;startFill=0;endFill=0;strokeColor=#312d2a;elbow=vertical;rounded=0;fontFamily=Helvetica;fontColor=#312D2A;" edge="1" parent="MMdjCpipxH8R7vhumyOM-6">
          <mxGeometry x="-1270.9803921568628" y="-245.6900000000001" width="68.62745098039215" height="50.000000000000014" as="geometry">
            <mxPoint x="210" y="12.800000000000185" as="sourcePoint" />
            <mxPoint y="12.800000000000185" as="targetPoint" />
          </mxGeometry>
        </mxCell>
        <mxCell id="MMdjCpipxH8R7vhumyOM-8" value="" style="group" vertex="1" connectable="0" parent="1">
          <mxGeometry x="250" y="340.13" width="210" height="37.82" as="geometry" />
        </mxCell>
        <mxCell id="MMdjCpipxH8R7vhumyOM-9" value="" style="endArrow=open;html=1;startArrow=open;startFill=0;endFill=0;strokeColor=#312d2a;elbow=vertical;rounded=0;fontFamily=Helvetica;fontColor=#312D2A;" edge="1" parent="MMdjCpipxH8R7vhumyOM-8">
          <mxGeometry x="-1270.9803921568628" y="-245.6900000000001" width="68.62745098039215" height="50.000000000000014" as="geometry">
            <mxPoint x="210" y="12.800000000000185" as="sourcePoint" />
            <mxPoint y="12.800000000000185" as="targetPoint" />
          </mxGeometry>
        </mxCell>
        <mxCell id="YzgmnVWLYQ7iU8UlS_Ah-59" value="" style="group" parent="1" vertex="1" connectable="0">
          <mxGeometry x="531.72" y="279.76" width="169.47" height="37.81999999999999" as="geometry" />
        </mxCell>
        <mxCell id="YzgmnVWLYQ7iU8UlS_Ah-60" value="" style="endArrow=open;html=1;startArrow=open;startFill=0;endFill=0;strokeColor=#312d2a;elbow=vertical;rounded=0;fontFamily=Helvetica;fontColor=#312D2A;" parent="YzgmnVWLYQ7iU8UlS_Ah-59" edge="1">
          <mxGeometry x="-1025.6811764705883" y="-245.69000000000005" width="55.38235294117647" height="50" as="geometry">
            <mxPoint x="169.47" y="12.800000000000182" as="sourcePoint" />
            <mxPoint y="12.800000000000182" as="targetPoint" />
          </mxGeometry>
        </mxCell>
      </root>
    </mxGraphModel>
  </diagram>
</mxfile>
